<?xml version="1.0" encoding="UTF-8" standalone="no"?>
<!-- Created with Inkscape (http://www.inkscape.org/) -->

<svg
   xmlns:dc="http://purl.org/dc/elements/1.1/"
   xmlns:cc="http://creativecommons.org/ns#"
   xmlns:rdf="http://www.w3.org/1999/02/22-rdf-syntax-ns#"
   xmlns:svg="http://www.w3.org/2000/svg"
   xmlns="http://www.w3.org/2000/svg"
   xmlns:sodipodi="http://sodipodi.sourceforge.net/DTD/sodipodi-0.dtd"
   xmlns:inkscape="http://www.inkscape.org/namespaces/inkscape"
   width="290.44778mm"
   height="114.29867mm"
   viewBox="0 0 290.44778 114.29867"
   version="1.1"
   id="svg8"
   inkscape:version="0.92.2 5c3e80d, 2017-08-06"
   sodipodi:docname="logo.svg">
  <defs
     id="defs2" />
  <sodipodi:namedview
     id="base"
     pagecolor="#ffffff"
     bordercolor="#666666"
     borderopacity="1.0"
     inkscape:pageopacity="0.0"
     inkscape:pageshadow="2"
     inkscape:zoom="3.265"
     inkscape:cx="454.31697"
     inkscape:cy="193.09669"
     inkscape:document-units="mm"
     inkscape:current-layer="layer1"
     showgrid="false"
     fit-margin-top="0"
     fit-margin-left="0"
     fit-margin-right="0"
     fit-margin-bottom="0"
     inkscape:window-width="1280"
     inkscape:window-height="755"
     inkscape:window-x="0"
     inkscape:window-y="1"
     inkscape:window-maximized="1" />
  <metadata
     id="metadata5">
    <rdf:RDF>
      <cc:Work
         rdf:about="">
        <dc:format>image/svg+xml</dc:format>
        <dc:type
           rdf:resource="http://purl.org/dc/dcmitype/StillImage" />
        <dc:title></dc:title>
      </cc:Work>
    </rdf:RDF>
  </metadata>
  <g
     inkscape:label="Layer 1"
     inkscape:groupmode="layer"
     id="layer1"
     transform="translate(45.703891,-51.023975)">
    <path
       style="fill:#38474f;fill-opacity:0.14516129;stroke-width:0.11361751"
       d="m 81.863104,121.7016 c 1.408963,-0.21184 1.334329,-0.41659 0.983293,-1.69148 l 0.17016,-1.45297 c 0.592713,0.22878 0.799172,0.97854 1.068729,1.98253 0.256008,0.95354 0.281715,1.57625 0.07366,1.78431 -0.319997,0.32 -3.054641,0.77251 -6.613307,1.09434 -1.427593,0.12911 -8.568757,0.25003 -9.146209,0.15488 -1.128801,-0.18464 -2.32875,-0.33663 -3.351717,-0.79427 -3.389592,-1.56449 -6.419388,-5.31261 -6.419388,-7.94137 0,-0.60922 0.04064,-0.73744 0.336388,-1.06124 0.355572,-0.38931 1.082175,-0.96917 1.765474,-0.88282 0.498771,0.42082 0.789512,1.27532 1.376329,1.31409 0.907621,-0.93671 1.801302,-2.06495 2.830041,-2.95745 1.950492,-1.58829 4.756804,-3.03114 6.95912,-3.08038 1.318471,-0.002 3.602557,0.36438 4.865927,1.35311 l -1.139574,0.65519 c -0.698668,-0.25856 -1.558487,-0.47803 -2.21683,-0.63238 -0.919436,-0.21145 -2.333051,-0.18652 -3.1311,0.0552 -2.170998,0.73279 -4.189425,2.14367 -5.668777,3.63202 -0.587258,0.39742 -1.853378,2.29442 -2.443487,2.33307 -0.386511,0 -1.121788,-0.45441 -1.399581,-0.86243 -0.280668,-0.41223 -0.481299,-0.4651 -0.812683,-0.21414 -0.232647,0.17618 -0.206047,0.57392 0.09968,1.49047 0.864618,2.59206 4.541921,5.81321 7.082157,6.20364 2.089652,0.32118 5.842838,0.35353 9.618894,0.0829 m 4.491445,-0.81627 -0.912488,-0.89385 c 0.482428,-0.39308 0.68793,-0.66324 0.901402,-1.185 0.249751,-0.61044 0.28466,-0.90668 0.360791,-3.0618 0.08955,-2.53501 0.142723,-2.95083 0.417709,-3.2665 1.512063,-0.35485 2.037602,-0.10448 3.230569,-1.20904 0.584731,-0.5462 1.110819,-1.03538 1.498661,-1.03416 0.130619,4.1e-4 0.390871,0.10233 0.57834,0.22649 0.461673,0.30575 0.807734,0.287 1.032434,-0.0559 -0.342659,-0.68828 -0.557865,-1.83278 -0.893969,-2.36159 -0.216017,-0.0829 -0.574083,0.29844 -0.803782,0.856 -0.112122,0.27217 -0.291011,0.47191 -0.493763,0.55133 -0.349357,0.13685 -1.664112,0.25153 -5.033069,0.43902 -1.21855,0.0678 -2.504164,0.19264 -2.856916,0.2774 -1.523737,0.36612 -2.880547,1.48041 -3.612145,2.96649 -0.394911,0.80218 -1.103536,2.88215 -1.257104,3.68986 l -1.082711,-0.6249 c 0.544817,-2.2 1.308136,-3.97768 2.162243,-5.03561 0.21933,-0.27168 0.630751,-0.67189 1.164582,-1.13287 0.753461,-0.54999 1.53408,-0.88262 2.33684,-1.03818 0.562161,-0.15298 4.355461,-0.45247 5.815234,-0.45912 1.071678,-0.005 1.874691,-0.15903 1.874691,-0.35984 0,-0.0652 0.140603,-0.31576 0.312449,-0.55682 0.690308,-0.96834 1.925815,-0.99308 2.515992,-0.26381 0.355207,0.88087 1.002121,1.86082 1.107801,2.73024 0.04954,0.49075 -0.112474,0.97443 -0.703363,1.46938 -0.33853,0.25821 -0.51517,0.30785 -1.076592,0.30256 -0.464179,-0.004 -0.729127,-0.0638 -0.857837,-0.19255 -0.596198,-0.2342 -1.172735,0.35259 -1.529359,0.68816 -1.518939,1.42979 -2.567081,1.61586 -2.641586,3.16264 l -0.08886,1.69755 c -0.161276,2.71443 -0.408837,2.67524 -1.466189,3.67445 z"
       id="path886"
       inkscape:connector-curvature="0"
       sodipodi:nodetypes="cccsccccscccccccccccccsscccccccccccccsssccccccscccccccccc" />
    <text
       xml:space="preserve"
       style="font-style:normal;font-variant:normal;font-weight:bold;font-stretch:normal;font-size:5.64444447px;line-height:125%;font-family:Chalkboard;-inkscape-font-specification:'Chalkboard, Bold';font-variant-ligatures:normal;font-variant-caps:normal;font-variant-numeric:normal;font-feature-settings:normal;text-align:start;letter-spacing:0px;word-spacing:0px;writing-mode:lr-tb;text-anchor:start;fill:#38474f;fill-opacity:1;stroke:none;stroke-width:0.80070889px;stroke-linecap:butt;stroke-linejoin:miter;stroke-opacity:1"
       x="71.012329"
       y="88.502457"
       id="text917"
       transform="scale(0.74997701,1.3333742)"><tspan
         sodipodi:role="line"
         id="tspan915"
         x="71.012329"
         y="88.502457"
         style="font-style:normal;font-variant:normal;font-weight:bold;font-stretch:normal;font-size:5.64444447px;font-family:Chalkboard;-inkscape-font-specification:'Chalkboard, Bold';font-variant-ligatures:normal;font-variant-caps:normal;font-variant-numeric:normal;font-feature-settings:normal;text-align:start;writing-mode:lr-tb;text-anchor:start;fill:#38474f;fill-opacity:1;stroke-width:0.80070889px">COME TO THE TABLE</tspan></text>
  </g>
</svg>
