<?xml version="1.0" encoding="UTF-8" standalone="no"?>
<!-- Created with Inkscape (http://www.inkscape.org/) -->

<svg
   xmlns:dc="http://purl.org/dc/elements/1.1/"
   xmlns:cc="http://creativecommons.org/ns#"
   xmlns:rdf="http://www.w3.org/1999/02/22-rdf-syntax-ns#"
   xmlns:svg="http://www.w3.org/2000/svg"
   xmlns="http://www.w3.org/2000/svg"
   xmlns:sodipodi="http://sodipodi.sourceforge.net/DTD/sodipodi-0.dtd"
   xmlns:inkscape="http://www.inkscape.org/namespaces/inkscape"
   width="297mm"
   height="210mm"
   viewBox="0 0 1052.3622 744.09448"
   id="svg2"
   version="1.1"
   inkscape:version="0.92.2 5c3e80d, 2017-08-06"
   inkscape:export-filename="/Users/dayne/Github/come2table/static/images/serving.png"
   inkscape:export-xdpi="111.46431"
   inkscape:export-ydpi="111.46431"
   sodipodi:docname="serving.svg">
  <defs
     id="defs4" />
  <sodipodi:namedview
     id="base"
     pagecolor="#ffffff"
     bordercolor="#666666"
     borderopacity="1.0"
     inkscape:pageopacity="0.0"
     inkscape:pageshadow="2"
     inkscape:zoom="0.50204581"
     inkscape:cx="607.68472"
     inkscape:cy="389.4656"
     inkscape:document-units="px"
     inkscape:current-layer="layer1"
     showgrid="false"
     inkscape:window-width="1280"
     inkscape:window-height="755"
     inkscape:window-x="0"
     inkscape:window-y="1"
     inkscape:window-maximized="1" />
  <metadata
     id="metadata7">
    <rdf:RDF>
      <cc:Work
         rdf:about="">
        <dc:format>image/svg+xml</dc:format>
        <dc:type
           rdf:resource="http://purl.org/dc/dcmitype/StillImage" />
        <dc:title></dc:title>
      </cc:Work>
    </rdf:RDF>
  </metadata>
  <g
     inkscape:label="Layer 1"
     inkscape:groupmode="layer"
     id="layer1"
     transform="translate(0,-308.26772)">
    <g
       id="g1791"
       transform="translate(-21.220483,8.107636)">
      <path
         d="m 380.5609,600.74127 0.0845,-0.76068 0.0845,-0.41449 0.21975,-2.26687 0.75224,-4.94361 0.15214,-0.52403 -0.0846,-0.15214 0.0846,-0.59164 0.38035,-2.99125 0.18594,-1.43517 0.18595,-1.43855 0.093,-0.49023 0.28737,-1.49602 0.2113,-1.09621 0.8655,-4.81433 0.1183,-0.64236 v -0.0845 l 0.1183,-0.49022 v -0.12712 -0.23667 l 0.0845,-0.53282 0.0845,-0.42261 0.1183,-1.04129 0.16059,-1.47575 0.27892,-2.5221 0.007,-0.0845 0.1775,-1.58818 0.85535,-6.1641 0.0845,-1.36755 h 0.16059 l -0.16059,-0.0845 0.60855,-5.18115 0.62546,-5.01718 0.10138,-0.97625 0.1775,-0.25356 0.38879,-4.04351 0.2113,-2.34712 0.23666,-1.25766 0.38879,-2.04799 -0.0845,-0.16905 -0.003,-0.17783 0.0846,-0.76069 v -0.20285 -0.64236 l 0.21129,-1.73012 0.12684,-1.02359 0.30429,-1.89664 0.54092,-3.40115 0.42261,-2.6286 0.15214,-3.89217 0.37189,-0.29548 0.40571,-3.30986 0.0845,-0.39691 0.30428,-2.51792 0.57473,-4.51174 0.47333,-3.80515 0.34654,-2.81368 v -0.18595 l 0.12683,-0.86975 0.0845,-0.39692 0.15213,-1.33455 0.3719,-2.71989 -0.093,-0.27048 -0.15215,-0.4564 0.39726,-3.04873 0.0845,-0.32118 0.10991,-0.66737 0.23665,-1.84088 0.31274,-2.4359 0.75223,-5.91392 0.92551,-7.4286 0.1775,-1.41827 0.61701,-4.87938 0.4057,-3.49499 0.32963,-2.78325 0.0845,-0.71842 0.3719,-3.15014 0.16059,-0.8849 0.16059,-1.67691 0.0845,-0.4821 0.0845,-0.49901 v -0.0845 h 0.004 0.004 v -0.0845 -0.27047 l 0.007,-0.0845 v -0.10138 l 0.0845,-0.85198 v -0.34688 l 0.1183,-0.93479 0.11831,-0.90777 0.16059,-1.24165 0.70997,-5.58766 0.49868,-4.14411 v -0.16905 l 1.84847,-18.13149 0.83677,-6.35431 0.0845,-1.29229 1.18161,-8.90434 0.093,-0.83677 0.43107,-3.78905 0.38879,-3.45355 1.45631,-12.82355 0.49866,-4.36217 0.8579,-7.55959 h 1.4918 1.43094 4.49316 l 0.52403,-0.003 1.24584,-0.007 h 2.45027 0.16059 l 1.76819,-0.0845 0.65081,10e-4 1.20865,0.006 h 2.91937 l 0.87057,0.004 1.1647,0.004 0.62546,0.003 h 8.05993 l 0.28737,0.003 h 9.16296 l 2.04626,0.007 h 3.73583 1.37347 l 0.98384,0.003 2.98613,0.007 h 0.15214 l 0.003,0.1183 h 1.8375 2.19247 l 1.04215,0.006 7.11754,0.0846 h 3.37155 l 5.48118,0.0845 6.22332,0.0845 0.64237,0.004 h 0.0845 l 0.16093,10e-4 1.0413,0.007 0.64236,0.004 0.78605,0.006 0.84521,0.006 0.69307,0.004 6.3391,0.0845 h 3.78655 2.39446 l 2.95486,0.003 v 4.57598 3.03769 l -0.0846,4.68497 0.0846,0.18596 -0.0846,5.2919 -0.0845,1.39879 0.0845,3.20932 0.0846,3.02328 0.14405,7.44383 0.10138,5.53863 0.003,1.36337 v 3.59634 2.46382 l 0.006,1.67433 v 7.5199 l 0.0845,18.08247 0.0845,2.99205 v 1.86284 1.37006 l 0.007,0.49023 v 0.69307 0.69308 1.05651 0.43951 l 0.18596,6.81749 0.15213,10.48658 v 14.02965 0.35498 l -0.0845,0.16905 -0.3462,0.21096 0.19406,0.87226 v 0.44829 l 0.1183,0.3293 0.14333,0.36379 0.18594,0.20285 0.18594,0.20285 0.28739,0.21096 0.29616,0.30427 0.0845,0.21097 0.1183,0.31239 -0.10138,0.31306 -0.10948,0.21097 -0.27926,0.16905 -0.49834,0.1183 -0.34687,0.17783 -0.43072,-0.0845 h -0.47333 -0.28736 l -0.31307,0.14405 -0.0933,0.25357 v 0.31239 l 0.0845,0.27046 0.17783,0.14404 0.19408,0.16904 1.21621,0.24478 1.63465,0.60043 0.18594,0.10948 h 0.21097 l 0.47332,0.15215 0.50713,0.19473 0.43072,0.17783 0.50712,0.26169 0.21976,0.10138 0.10138,0.0845 0.10948,0.0845 0.35499,-0.0845 0.31307,-0.21976 0.24477,-0.21096 0.53214,-0.38879 0.87903,-0.52404 0.73534,-0.63357 0.62545,0.68463 0.18595,0.21096 0.0845,0.16092 0.0845,0.18595 0.0845,0.27859 0.0933,0.91621 v 0.27925 l 0.0845,0.31239 0.14333,0.24478 0.21096,0.23666 0.1183,0.32118 0.1183,0.20285 0.0845,0.30428 -0.0845,0.71842 -0.0845,0.27859 -0.10138,0.24477 -0.27925,0.39691 -0.31307,0.39759 -0.38002,0.43072 -0.21096,0.39758 v 0.17783 0.10138 l 0.0845,0.0933 0.18596,0.10948 h 0.21976 l 0.27925,-0.0845 0.17783,-0.11021 0.17715,-0.10948 0.24546,-0.26167 0.24477,-0.32118 0.31307,-0.25357 0.21976,-0.0845 h 0.21096 l 0.29616,0.0845 0.50713,0.19474 0.25355,0.20285 0.69309,0.47333 0.29616,0.16903 0.29616,0.10138 0.46453,0.0845 0.14405,0.0927 0.1183,0.18594 0.0845,0.21097 -0.10138,0.20285 -0.13522,0.14404 -0.42261,0.25356 -0.28738,0.17783 -0.13523,0.18595 -0.52403,0.60044 -0.17784,0.25356 -0.13523,0.33808 -0.10138,0.32998 v 0.64236 l 0.0845,0.22787 0.0845,0.21097 0.18595,0.20285 0.21096,0.0845 0.57475,0.19473 0.18595,0.0845 0.15214,0.0845 0.10138,0.11831 0.66737,0.71843 0.25357,0.13523 0.28737,0.12712 0.21975,0.10138 0.25357,-0.006 h 0.14405 l 0.14332,-0.13523 0.0933,-0.18594 0.14332,-0.24478 0.43951,-0.81986 0.21096,-0.23666 0.20285,-0.19474 0.35499,-0.13522 h 1.51044 1.21202 l 2.29391,0.0933 4.34777,0.11021 1.4318,-0.003 2.68013,-0.0845 h 4.72473 l 2.0657,0.007 0.47332,-0.0845 -0.43072,2.00735 -1.23063,6.20555 -0.72689,3.44596 0.003,1.07086 -0.003,1.57209 v 2.66242 l 0.10948,2.23305 0.21976,4.43825 0.10138,2.93707 0.22787,5.21585 2.02771,1.25341 7.35841,5.41362 3.02587,-1.54336 9.19929,-3.91165 8.79101,13.47857 0.31307,-0.0845 h 0.68462 0.7945 l 0.7945,-0.0845 h 0.63357 l 1.96428,-0.10138 v 0.0845 l -0.28737,1.3253 -1.71747,7.3576 -0.38881,1.78758 -0.93649,4.10267 -0.33808,1.42253 -0.96943,4.12882 -0.23665,1.02528 -0.45642,1.94229 -0.22787,0.88998 -0.48211,1.90937 -0.9872,3.78147 -0.38002,1.38954 -0.13522,0.54094 -0.39691,1.53909 -0.54973,2.02682 -0.13522,0.56664 -0.10138,0.43072 v 0.1183 l -2.83147,4.84308 -0.82831,1.42164 -0.25357,0.43072 -0.29616,0.50713 -2.34799,4.27678 -1.70395,3.12221 -0.25357,0.43951 -0.30427,0.53282 -0.10139,0.17783 -1.65322,2.95575 -2.04461,2.51277 -1.3988,1.69381 -1.50365,1.82228 -0.27927,0.33809 -0.0845,0.0845 0.14404,0.0845 -2.06652,2.83147 -1.19006,0.41381 -1.53578,0.54094 -2.30743,0.8114 -0.24478,0.15213 -0.64235,0.28739 -0.67617,0.33807 -0.20285,0.14404 -0.21097,0.3293 -0.28737,0.61734 v 0 l -0.27926,0.61735 -0.44763,1.00242 -0.0845,0.27859 -0.13523,0.29548 -0.14332,0.28737 -0.27047,0.38001 -0.26167,0.38068 -0.0845,0.12713 -0.17785,0.28738 -0.23665,0.53282 -0.23666,0.4652 -0.22787,0.3293 -0.0845,0.0845 -0.29616,0.32929 -0.24478,0.36379 -0.23666,0.49833 0.007,0.32998 0.004,0.21096 v 0.49833 l -0.0845,0.60855 -0.0845,0.55785 -0.13523,0.47332 -0.19473,0.74378 -3.65213,-0.90775 -13.27578,-3.05798 -1.4343,-0.3293 -2.53056,-0.58353 -6.8665,-1.6262 -0.68462,-0.12712 -2.53145,-0.60856 -0.96693,3.38762 -0.13522,0.43951 -0.25356,0.82831 -0.31306,0.99653 v 0.12712 l -0.17783,0.61735 -0.20285,0.68462 -0.59166,2.01748 -0.90856,3.08672 -0.55785,1.89666 -0.86719,2.94728 -0.59164,1.98287 -0.0933,0.32118 -0.27925,0.939 v 0.0927 l -0.50713,1.68366 -0.10138,0.3462 -0.10948,0.36378 -0.10948,0.37189 -0.27859,0.92385 -0.54905,1.84338 -0.0845,0.16903 -0.0845,0.19474 -0.17783,0.60857 -0.30428,1.02696 -0.33809,1.13596 -0.15214,0.51592 -0.32929,1.10723 -0.54972,1.85777 -0.2955,0.99059 -0.0845,0.17717 -0.41449,1.39628 v 0 l -1.21035,3.80008 -0.30427,0.96016 -1.27038,3.98683 -0.57475,1.83161 -0.45642,1.38107 -0.32118,0.96693 -0.32117,1.39035 -1.80876,0.0845 h -0.49023 l -2.2415,0.0845 h -0.30428 l -1.88226,0.10138 h -0.23664 l -1.66677,0.0845 -3.16029,0.16094 -0.38879,0.003 -0.0845,-0.003 h -0.27926 l -8.0092,0.1183 h -2.72497 -2.26179 -2.09613 l -9.44778,0.14405 h -0.56629 -0.65927 -0.43951 l -0.0845,-8.9e-4 h -0.70998 l 0.34654,-0.0927 h -1.28557 l -1.80876,-0.0845 -5.25467,-0.30428 -2.24489,0.11831 -5.48375,0.26168 -4.48892,0.30427 -6.93074,0.67618 -7.81821,0.44829 -2.06401,0.18595 -4.2886,0.27927 -15.23073,1.11229 -3.45776,0.21096 -10.74012,0.8486 -2.83569,0.24477 -2.53478,0.19474 -3.12561,0.27046 -1.2695,0.12713 -2.11472,0.21975 0.0845,-0.41381 0.95847,-5.74746 0.15214,-0.8114 0.0845,-0.55784 0.12684,-0.56662 0.20285,-0.86719 -0.1183,-1.09451 0.17749,-1.60002 0.96271,-8.90179 0.15213,-1.50109 0.14376,-1.64221 0.21131,-1.96604 0.093,-0.90011 0.10138,-0.9365 0.10138,-0.96436 v -0.10138 -0.31239 -0.21164 l 0.0845,-0.62546 v -0.20285 -0.29548 -0.0845 l 0.13523,-1.29567 v -0.10138 l 0.24512,-2.36571 0.27891,-2.69461 0.1183,-1.16809 0.60011,-5.86069 0.23666,-2.13502 0.007,-0.0845 0.10138,-0.89849 0.0845,-0.39691 v -0.36379 l 0.006,-0.0845 0.093,-0.81986 0.10992,-0.97368 0.18594,-1.63713 v -0.19474 l 0.16059,-1.409 0.0845,-0.46453 0.0845,-0.79451 0.006,-0.0845 0.0845,-0.56663 0.0845,-0.56663 0.0845,-0.3888 0.0845,-0.71843 0.093,-0.83675 0.10138,-0.42261 0.1775,-1.58142 0.1183,-1.09284 0.10138,-0.83676 0.72689,-4.91488 0.1944,-1.05739 v -0.21096 l 0.16904,-2.49425 v -0.18596 -0.19473 l -0.003,-0.16904 0.15215,-1.54512 h 0.003 l 0.10992,-1.15787 v -0.28738 l 0.1183,-1.68535 0.1775,-1.75465 0.093,-0.76916 0.13522,-1.40223 z"
         style="fill:none;fill-opacity:1;fill-rule:evenodd;stroke:#38474f;stroke-width:18.75;stroke-linecap:butt;stroke-linejoin:miter;stroke-miterlimit:3.86360002;stroke-dasharray:none;stroke-opacity:0.14509804"
         id="path4281"
         inkscape:connector-curvature="0" />
      <path
         d="m 322.7493,630.00819 -0.0845,0.39692 -0.10138,0.89849 -0.007,0.0845 -0.23667,2.13508 -0.60008,5.86069 -0.11831,1.16809 -0.27892,2.69454 -0.24511,2.36572 v 0.10138 l -0.13522,1.29567 v 0.0845 0.29549 0.20286 l -0.0845,0.62546 v 0.21163 0.3124 0.10138 l -0.10138,0.96435 -0.10139,0.93649 -0.093,0.90019 -0.2113,1.9659 -0.14375,1.64228 -0.15213,1.50109 -0.96269,8.90178 -0.1775,1.60002 0.1183,1.09452 -0.20285,0.86718 -0.12683,0.56664 -0.0845,0.55784 -0.15215,0.8114 -0.95847,5.74744 -5.30793,0.32118 -1.47827,0.11831 -3.62343,0.29548 h -0.49867 -0.14375 -0.14376 -0.1775 l -5.35526,0.23666 -2.39702,0.1102 -2.34123,0.11021 -2.78836,0.27046 -1.96596,0.19474 -2.57029,0.16092 -3.02841,0.18596 -0.13522,0.007 -2.52634,0.20285 -1.64733,0.12712 -2.34631,0.16904 -2.77567,0.19474 -1.39882,0.0933 -0.28739,-0.007 -0.34653,-0.007 h -1.00073 l -3.10109,-0.0845 -0.66771,-0.0845 -3.21857,-0.34621 -5.42204,-0.57473 -4.69854,-0.33809 -1.5163,-0.1102 -4.05617,-0.34621 -0.99145,-0.0845 -1.05312,-0.0927 -0.12684,0.17783 -3.81274,-0.32118 h -0.3719 l -1.37938,-0.0845 -2.32433,-0.19474 0.0845,-0.50712 -1.70648,-0.16094 -1.21965,-0.1183 -2.35645,-0.22787 -0.97622,-0.0926 -3.93616,-0.38068 -3.03515,-0.31239 -2.06739,-0.21097 -1.10554,-0.0845 -12.24882,-1.25597 -0.49022,-0.0845 -8.13432,-0.81986 -1.81467,-0.18595 -0.0845,-0.006 -5.28935,-0.53283 h -0.16059 l -4.01053,-0.44762 -1.04637,-0.1183 -6.629,-0.58353 h -0.21131 l 0.10992,-0.43072 -0.0845,-0.54094 0.10138,-0.54973 0.12683,-0.15213 0.009,-0.0845 h -1.43263 -1.12668 l -0.10138,1.53739 -1.38361,-0.13522 -2.56268,-0.31307 -1.22303,-0.15214 -5.98411,-0.55785 -6.44136,-0.58353 h -0.16059 l -0.16059,-0.4821 -0.0845,0.0933 -0.0845,-0.26168 -0.11831,-0.3462 -0.41414,-0.8114 -0.44797,-0.68463 -0.80294,-1.15874 -0.84607,-1.07262 -0.33809,-0.29548 -0.15213,-0.21976 -0.63392,-0.96774 -0.4057,-0.65046 -0.30427,-0.73534 -0.0845,-0.55785 -0.1183,-0.64235 -0.1775,-0.79443 -0.2113,-0.63357 -0.32964,-0.73534 -0.27891,-0.98552 -0.1183,-0.91032 v -0.90018 -0.55785 -0.4821 l 0.0845,-0.51592 0.0845,-0.75225 0.15215,-0.74372 0.19439,-0.9365 0.2451,-0.70997 0.14376,-0.80301 -0.0845,-0.49903 -0.26202,-0.54092 -0.20285,-0.3719 -0.51557,-0.73533 -0.68462,-0.78605 -0.41416,-0.41383 -0.76914,-0.61734 -0.68462,-0.37189 -0.61701,-0.36377 -0.66772,-0.38881 -0.28737,-0.18594 v 0 -0.19474 l -0.0845,-5.20056 8.4e-4,-5.76096 -8.4e-4,-2.24827 0.0845,-1.92626 v -2.54153 l -0.001,-0.63357 -0.003,-1.59833 v 0 l -0.006,-2.7748 v -4.85916 -1.86116 l -0.006,-1.03961 v -3.3918 l -0.007,-1.45377 -0.003,-0.39758 v -4.30551 l -0.001,-0.70153 -0.001,-0.67618 v -4.74758 l -0.003,-1.42246 -0.003,-0.82831 -8.5e-4,-0.0845 -0.003,-1.24166 -0.0845,-8.97276 v -1.19677 -3.32343 l -8.6e-4,-0.43952 v -2.63868 l -0.006,-1.29155 -8.5e-4,-0.16093 v -2.15441 l -0.006,-1.04637 -0.004,-1.1994 -0.0845,-2.50432 v -2.71739 -2.3497 l 0.006,-0.48142 v -1.42922 -1.31097 -2.90921 -3.0943 l 10e-4,-2.70217 -8.4e-4,-1.2915 8.4e-4,-0.36309 v -2.16544 -1.92877 -2.95229 l 0.007,-0.62546 v -1.68705 l 0.003,-0.59165 v -3.45015 -2.99631 -3.8846 -0.94744 l -0.21131,-7.45058 v -0.81142 l -0.007,-0.22787 0.0845,-1.29398 0.13523,-3.65301 0.23666,-6.49549 0.007,-0.79449 0.004,-0.49022 8.4e-4,-0.20287 v -1.67263 -5.44992 -0.7776 l -0.0845,-2.34293 v -0.43952 -0.97118 l -0.0845,-0.56595 v -0.26235 -0.73527 l -0.003,-0.20285 -0.003,-0.12713 -0.003,-0.15213 -0.003,-0.16026 -0.007,-0.4314 8.4e-4,-0.14404 0.003,-0.66738 -0.0845,-0.355 0.0845,-0.72688 v -0.17783 l 0.0845,-0.70153 v -1.4986 -1.10215 l 0.004,-0.18594 v -1.05483 -0.39691 l -0.0845,-0.44831 v -0.20285 l -0.007,-0.0845 v -0.35498 -0.33809 l 8.5e-4,-0.0845 v -2.8441 l -10e-4,-0.67618 -0.003,-1.21372 v -0.1264 -5.72039 l -0.003,-0.62547 v -1.62707 -4.06546 l 0.006,-1.82986 8.4e-4,-0.24478 0.003,-0.77766 0.006,-1.62112 0.004,-1.5518 0.003,-1.27283 8.4e-4,-0.22787 v -0.22854 l 8.5e-4,-0.11831 v -0.0933 l 0.004,-1.15118 0.001,-0.88234 0.003,-1.04556 0.006,-1.70821 v -4.16264 l 0.003,-0.8638 0.006,-2.63619 v -5.28514 -4.86167 -7.87987 -10.09184 l -0.004,-1.34558 v -0.21164 -0.22787 l -10e-4,-0.15213 10e-4,-1.99721 v -3.45523 l 0.001,-0.60855 v -7.46741 l 8.5e-4,-0.33809 v -1.09371 l -0.001,-1.35403 v -6.19541 -0.21974 l -0.21131,-7.7878 -0.006,-0.31239 0.25357,-9.64894 0.003,-1.68623 v -0.0845 l 0.007,-3.2321 0.89171,0.007 h 3.83641 l 1.71409,10e-4 3.09347,10e-4 1.40137,0.001 2.24658,10e-4 3.25322,0.12712 1.77747,0.0845 3.53045,0.13522 h 0.89255 1.1047 l 2.67172,-0.001 1.15455,-8.8e-4 h 1.98372 0.95509 1.50109 l 9.50357,-0.17783 2.25502,-0.0845 0.16905,-0.006 5.11269,0.0845 h 1.17145 l 7.69652,0.0845 h 1.99301 5.70518 l 0.67617,-0.004 1.27796,-0.007 0.55785,-0.004 2.20177,-0.0845 h 0.86465 l 1.27035,-0.0845 h 0.1183 0.23667 l 2.28545,0.0845 h 1.16809 4.50919 2.63115 3.13236 l 0.54939,0.0845 h 3.76204 3.24562 l 0.10992,-10e-4 10.22791,-0.0933 0.59165,-0.006 h 6.00186 6.56137 l 0.51559,-0.006 h 3.34873 3.66907 1.4918 3.8922 l 4.09252,-0.0845 h 2.87288 0.99565 1.82313 l 4.31228,-0.0845 0.15213,-10e-4 h 2.08513 l 0.31274,-0.003 h 1.31599 l 0.55785,-0.004 h 1.27879 2.6751 l 4.82193,-0.0845 h 3.58034 1.34979 l 5.61222,0.16904 3.85501,0.28738 0.4057,10e-4 h 2.86105 l 0.9703,0.003 h 8.92966 5.43387 l 1.78593,0.004 h 7.00006 0.7945 l -0.8579,7.55951 -0.49866,4.36217 -1.45631,12.82356 -0.38879,3.45354 -0.43107,3.78912 -0.093,0.8367 -1.1816,8.90434 -0.0845,1.29236 -0.83676,6.3543 -1.84847,18.13143 v 0.16905 l -0.49868,4.14411 -0.70998,5.58766 -0.16059,1.24165 -0.1183,0.90777 -0.1183,0.93479 v 0.3462 l -0.0845,0.85198 v 0.10139 l -0.007,0.0845 v 0.27046 0.0845 h -0.004 -0.004 v 0.0845 l -0.0845,0.49901 -0.0845,0.48211 -0.16059,1.6769 -0.1606,0.8849 -0.3719,3.15015 -0.0845,0.71843 -0.32963,2.78325 -0.4057,3.49498 -0.61701,4.87945 -0.17749,1.4182 -0.92551,7.42861 -0.75224,5.91391 -0.31273,2.4359 -0.23665,1.84087 -0.10991,0.66739 -0.0845,0.32116 -0.39726,3.04873 0.15215,0.45642 0.093,0.27046 -0.3719,2.71989 -0.15213,1.33456 -0.0846,0.39691 -0.12683,0.86976 v 0.18594 l -0.34654,2.81368 -0.47332,3.80515 -0.57474,4.51174 -0.30427,2.51792 -0.0845,0.39691 -0.40571,3.30986 -0.37189,0.29548 -0.15214,3.89217 -0.42261,2.62862 -0.54092,3.40113 -0.30429,1.89666 -0.12684,1.02358 -0.21129,1.73011 v 0.64236 0.20285 l -0.0845,0.7607 0.003,0.17783 0.0845,0.16905 -0.38879,2.04798 -0.23667,1.25768 -0.21129,2.34712 -0.3888,4.04349 -0.17749,0.25356 -0.10139,0.97625 -0.62545,5.01719 -0.60855,5.18115 0.16057,0.0845 h -0.16057 l -0.0845,1.36756 -0.85535,6.1641 -0.1775,1.58819 -0.007,0.0845 -0.27892,2.5221 -0.1606,1.47575 -0.1183,1.04131 -0.0845,0.42261 -0.0845,0.53214 v 0.23665 0.12712 l -0.1183,0.49022 v 0.0845 l -0.1183,0.64235 -0.86551,4.81434 -0.21129,1.09621 -0.28737,1.49602 -0.093,0.49022 -0.18594,1.43855 -0.18594,1.43518 -0.38035,2.99123 -0.0845,0.59166 0.0845,0.15213 -0.15214,0.52403 -0.75224,4.94362 -0.21976,2.26686 -0.0845,0.41449 -0.0845,0.76069 -0.13522,1.40224 -0.093,0.76914 -0.1775,1.75467 -0.1183,1.68535 v 0.28736 l -0.10992,1.15795 h -0.003 l -0.15213,1.54505 0.003,0.16904 v 0.19474 0.18594 l -0.16904,2.49419 v 0.21096 l -0.1944,1.05741 -0.72688,4.91487 -0.10138,0.83676 -0.11831,1.09289 -0.17748,1.58136 -0.10138,0.42261 -0.093,0.83676 -0.0845,0.71842 -0.0845,0.3888 -0.0845,0.56664 -0.0845,0.56662 -0.006,0.0845 -0.0845,0.79449 -0.0845,0.46454 -0.16059,1.409 v 0.19473 l -0.18595,1.63715 -0.10991,0.97368 -0.093,0.81985 -0.006,0.0845 v 0.36377 z"
         style="fill:none;fill-opacity:1;fill-rule:evenodd;stroke:#38474f;stroke-width:18.75;stroke-linecap:butt;stroke-linejoin:miter;stroke-miterlimit:3.86360002;stroke-dasharray:none;stroke-opacity:0.14509804"
         id="path4357"
         inkscape:connector-curvature="0" />
      <path
         d="m 726.39635,893.07006 -2.55761,2.54997 -2.61508,2.60833 -0.53214,0.53282 -0.65927,0.65927 -0.10949,0.1102 -2.56437,2.55674 -4.45765,4.44082 -1.18498,1.18073 -0.71844,0.71842 -1.23319,1.22806 -0.36311,0.355 -1.03366,1.03034 -0.49022,0.49022 -0.53214,0.52403 -4.67234,4.66558 -1.52983,1.53571 -0.26169,0.26236 -2.55679,2.5407 -0.84522,0.83677 -0.97618,0.97118 -3.66066,3.63779 -0.76914,0.7607 -0.74379,0.73533 -0.27857,0.22787 -4.13309,4.13559 -2.02932,2.0277 -2.62524,2.61002 -0.95258,0.94495 -3.86262,3.83638 -3.95898,3.93024 -0.54905,0.54972 -0.31307,0.31239 -1.11906,1.11149 -0.46453,0.45642 -1.65235,1.63971 -0.94157,0.93481 -0.51592,0.50712 -2.21026,2.1747 -1.56108,1.54423 -6.37039,6.2867 -2.76554,2.79169 v 0.004 l -1.13935,1.17058 -5.09067,4.96398 -0.22787,0.2198 -2.39621,-0.8283 -4.40864,-1.5316 -0.65925,-0.1859 -2.97258,-1.0168 -2.77738,-0.95089 -0.65925,-0.21976 h -0.11831 l -2.88644,-0.98809 -1.31933,-0.44762 -1.70733,-0.58285 -1.70057,-0.58353 -1.2163,-0.41383 -0.92127,-0.31239 -2.71652,-0.92973 -0.91702,-0.45642 -3.59303,-1.42164 -3.16785,-1.13089 -1.59997,-0.56664 -0.93987,-0.33809 -1.78677,-0.64235 -3.89981,-1.38615 -2.76642,-0.98383 -0.51591,-0.18595 -1.19088,-0.4226 h -0.0845 l -0.76915,-0.27047 -0.4821,-0.16905 -1.0405,-0.37188 -1.12412,-0.39759 -5.25216,-1.86962 -0.41449,-0.14404 -3.56849,-1.26951 -9.51282,-3.38843 -0.75225,-0.27047 -1.8907,-0.67617 -4.95383,-1.78258 -0.80294,-0.28737 -9.09619,-3.24643 -3.94287,-1.40813 -3.31831,-1.18498 -1.41996,-0.50712 -1.89665,-0.67618 -0.22855,-0.0845 -1.17741,-0.42261 -1.8375,-0.65927 -3.31234,-1.18417 -2.3827,-0.94914 h -0.15213 l -1.69462,-0.55784 -2.10796,-0.7776 -0.55784,-0.19406 -0.82831,-0.28737 -1.51719,-0.54093 -10.3268,-3.71387 -4.52526,-1.62787 -3.51778,-1.26613 -0.61735,-0.21976 -4.5726,-1.64566 -0.8114,-0.28737 -7.8241,-3.00389 -3.06642,-1.20358 -0.31307,-0.1183 -0.27048,-0.10138 -3.7054,-1.42078 -0.33809,-0.1264 v 0 l -0.46453,-0.17783 -0.63357,-0.25355 -0.70151,-0.27859 h -0.0845 l -1.20276,-0.4652 -0.63357,-0.24478 -3.41296,-1.30839 -3.55328,-1.27545 -0.60856,-0.21976 -5.94435,-2.27274 -1.06326,-0.43951 -0.76915,-0.27926 -2.3835,-0.9154 -0.58353,-0.21975 -1.77833,-0.68463 -3.20762,-1.23313 -0.32118,-0.12713 -1.19681,-0.45642 -6.30103,-2.42408 -3.29126,-1.27207 0.66738,-2.32852 1.18161,-4.15169 1.2027,-4.4619 0.33808,-1.10386 0.91034,-3.23459 0.47331,-1.77325 0.71844,-2.65904 0.75223,-2.80948 0.23667,-0.89086 1.16382,-4.32668 v -0.0845 l 2.0826,-7.57141 0.31307,-1.13935 0.32929,-1.15369 0.23667,-0.94075 v -0.0845 l 0.14404,-0.4821 0.53215,-1.88314 0.0845,-0.16904 0.16026,-0.54973 0.49901,-1.71916 1.07341,-3.67748 v -0.0845 l 1.1664,-3.78486 0.13522,-0.4821 0.15213,-0.49022 0.30429,-0.9864 0.39691,-1.30413 0.26235,-0.85285 0.26168,-0.84603 0.57474,-2.02432 v -0.1183 l 0.67617,-2.39702 0.19474,-0.67617 v -0.21096 l 0.38879,-1.30582 -0.0845,-0.0845 0.71844,-2.71231 1.66763,-5.91392 0.33809,-0.91959 0.30427,-0.94325 3.52704,-12.69003 1.4639,-5.02989 2.07674,-7.92045 1.16132,-4.55996 0.86123,-3.02078 3.35549,-10.1907 1.0405,-3.52371 0.22787,-0.70153 0.10948,-0.21097 0.10138,-0.32118 -0.004,-0.21096 v -0.27927 -0.42259 l 0.1264,-0.59166 1.42334,-8.25773 3.20504,-17.20852 0.12713,-0.96522 2.48411,-6.05085 0.17716,-0.25357 1.1148,-2.84667 2.79934,-7.13867 0.14333,-0.37188 1.3008,-4.47881 0.25357,-0.84772 0.0845,-0.16094 0.32119,-1.08105 1.37513,-4.62582 2.33785,-8.02025 0.50712,-1.76393 0.54094,-1.88989 v -0.0845 l 0.21976,-2.9126 0.0845,-0.89931 0.16092,-2.04798 0.92555,-10.21436 0.3293,-4.1855 2.24487,-0.1183 5.25466,0.30427 1.80875,0.0845 h 1.2856 l -0.3462,0.0927 h 0.70998 l 0.0845,8.1e-4 h 0.4395 0.65927 0.56595 l 9.44779,-0.14405 h 2.09612 2.2618 2.72496 l 8.00922,-0.1183 h 0.27927 l 0.0845,0.003 0.3888,-0.003 3.16021,-0.16094 1.66677,-0.0845 h 0.23664 l 1.88233,-0.10138 h 0.30428 l 2.2415,-0.0845 h 0.49023 l 1.80875,-0.0845 0.32118,-1.39042 0.32118,-0.96691 0.45642,-1.38108 0.57474,-1.83155 1.27032,-3.9869 0.30427,-0.96016 1.21035,-3.80007 v 0 l 0.41381,-1.39629 0.0845,-0.17783 0.29616,-0.99059 0.54905,-1.85777 0.3293,-1.10723 0.15213,-0.51592 0.33809,-1.13597 0.30427,-1.0269 0.17783,-0.60855 0.0845,-0.19474 0.0845,-0.16905 0.54904,-1.84336 0.27927,-0.92385 0.10948,-0.3719 0.10948,-0.36377 0.10138,-0.34621 0.50713,-1.68367 v -0.0927 l 0.27857,-0.93899 0.0933,-0.32118 0.59165,-1.98295 0.86719,-2.94722 0.55784,-1.89665 0.90863,-3.08671 0.59166,-2.01757 0.20285,-0.68455 0.17715,-0.61734 v -0.12713 l 0.31307,-0.99646 0.25357,-0.8283 0.13522,-0.43952 0.96693,-3.38762 2.53137,0.60857 0.68463,0.12712 6.86651,1.6262 2.53056,0.58353 1.43428,0.32929 13.27579,3.05798 3.65214,0.90777 0.19473,-0.74379 0.13523,-0.47333 0.0845,-0.55784 0.0845,-0.60855 v -0.49833 l -0.006,-0.21097 -0.007,-0.32997 0.23667,-0.49833 0.24476,-0.36379 0.29616,-0.3293 0.0845,-0.0845 0.22785,-0.32929 0.23667,-0.4652 0.23666,-0.53283 0.17783,-0.28736 0.0845,-0.12713 0.26168,-0.38068 0.27047,-0.38001 0.14332,-0.28737 0.13522,-0.29548 0.0845,-0.27859 0.44763,-1.00242 0.27926,-0.61735 v 0 l 0.28736,-0.61734 0.21098,-0.32929 0.20285,-0.14405 0.67616,-0.33809 0.64237,-0.28738 0.24545,-0.15213 2.30742,-0.8114 1.53578,-0.54094 1.19007,-0.41381 2.06651,-2.83147 -0.14404,-0.0845 0.0845,-0.0845 0.27925,-0.33809 1.50366,-1.82228 1.39879,-1.69381 2.04461,-2.51285 1.65323,-2.95567 0.10138,-0.17715 0.30428,-0.53282 0.25357,-0.43952 1.70395,-3.12222 2.348,-4.27677 0.29616,-0.50712 0.25356,-0.43072 0.82832,-1.42165 2.83145,-4.84307 v -0.1183 l 0.10138,-0.43072 0.13523,-0.56663 0.54971,-2.02682 0.39692,-1.53916 0.13523,-0.54094 0.38001,-1.38952 0.98721,-3.78149 0.4821,-1.9093 0.22787,-0.89004 0.45642,-1.9423 0.23667,-1.02521 0.96941,-4.12889 0.33809,-1.42246 0.9365,-4.10267 0.38879,-1.78766 1.71747,-7.35754 0.28737,-1.32529 v -0.0845 l -1.96427,0.10138 h -0.63357 l -0.79449,0.0845 h -0.79451 -0.68462 l -0.31306,0.0845 -8.79103,-13.47863 -9.19928,3.91163 -3.02586,1.54336 -7.35843,-5.41354 -2.02769,-1.25349 -0.22787,-5.21577 -0.10138,-2.93715 -0.21975,-4.43817 -0.10949,-2.23306 v -2.66241 l 0.003,-1.5721 -0.003,-1.07093 0.72689,-3.44589 1.23062,-6.20555 0.43072,-2.00741 0.0845,10e-4 1.78679,-0.3969 2.00822,-0.44831 1.8857,-0.43072 2.62693,-0.57474 8.48504,-1.9093 0.89424,-0.23666 0.47332,-0.0845 0.3719,-0.0845 0.0845,-0.0845 0.38879,-0.10138 2.78671,-0.27046 3.691,-0.11831 h 1.24504 1.21371 0.52404 l 0.49901,0.0845 h 0.0845 l 4.10854,0.3293 3.14758,0.25357 4.47963,0.32118 2.20938,0.1183 v 0 l 0.21097,0.10138 2.28376,1.07931 5.09494,2.40803 0.4226,0.20285 0.39759,0.18595 0.0933,0.0845 0.74379,0.34686 1.72343,0.8114 4.30043,2.0319 7.64322,3.55578 0.67618,0.32118 0.27046,0.12712 0.53214,0.25357 0.863,0.4057 0.54974,0.25357 0.70151,0.32996 2.24658,1.0929 6.90539,3.25069 0.4226,0.19474 0.4314,0.20285 0.59165,0.27857 1.78083,0.83677 3.4958,1.67521 2.14771,1.02947 0.54905,0.26168 1.39798,0.66738 1.60928,0.76914 2.33022,1.12495 1.64397,0.79449 0.76069,0.36311 0.13523,0.0845 4.15249,1.72849 1.63296,0.62546 1.89752,0.76914 1.2399,0.48212 4.55826,1.83917 2.68271,1.08188 7.45815,3.00807 6.73039,2.71401 0.44763,0.18595 2.21195,0.88828 0.67618,0.27859 1.76311,0.71842 1.73856,0.70999 0.63357,0.26167 5.18372,2.1198 1.72593,0.70153 2.69197,1.10046 0.94325,0.38879 1.51632,0.61735 0.92553,0.38001 0.84691,0.3462 5.09324,2.0801 1.79693,0.73533 h 0.0845 l 1.31853,0.54094 4.12545,1.68366 1.56453,0.64236 0.4395,0.17783 1.15537,0.47333 1.60172,0.65047 h 0.0845 l 1.63714,0.58353 0.81986,0.37189 0.82831,0.38069 1.05062,0.50713 3.85499,1.80199 0.36377,0.16905 0.23667,0.1102 0.94664,0.39693 2.71819,1.3743 v 0.006 l 3.4789,1.70144 4.2362,2.03189 4.7459,2.29391 4.32492,2.1375 4.03674,1.87556 1.06247,0.54094 0.51591,0.25357 0.21097,0.10138 0.28737,0.14405 1.17485,0.56664 1.39629,0.65925 0.39759,0.18596 1.77575,0.86968 1.17653,0.59165 4.57687,2.18403 2.74267,1.32279 0.0927,0.15214 0.15213,0.25357 1.64567,2.32683 0.10948,0.16093 1.09201,1.54424 1.97104,2.66411 0.30428,0.47332 0.90011,1.20866 3.17462,4.28015 0.38879,0.51592 2.1215,2.91678 0.32118,0.47333 6.16077,8.44455 0.42261,0.57474 0.34688,0.47332 2.75371,3.77303 1.56701,0.22786 0.55785,0.0845 0.65927,0.10138 0.38068,0.0845 h 0.26167 l 0.82832,0.10138 4.37231,0.65048 4.3951,0.63357 1.58312,0.21096 11.27087,1.66338 0.57475,0.0845 h 0.16904 l 0.43951,0.0845 0.47333,4.20827 0.0845,0.68462 0.66738,5.91819 0.0845,0.48142 0.23665,2.12487 0.0845,0.39758 0.22787,2.02683 0.0845,0.54093 0.41449,0.67618 0.26167,0.27046 h 0.15215 l 0.4057,0.16092 0.21975,0.16094 0.0845,0.32118 0.16093,0.19474 h 0.29617 l 0.57474,0.0845 0.69307,0.29548 0.36311,0.24478 0.46453,0.22787 1.15543,0.30427 h 0.59166 l 0.69307,-0.24544 0.60855,-0.10948 0.33809,0.0845 0.4226,0.60044 0.22787,0.16092 0.57474,0.0927 0.70153,-0.0845 0.81986,0.12712 0.84521,0.97538 0.27046,0.56662 0.12713,0.65927 0.35499,0.76914 0.25356,0.25357 h 0.36379 l 0.22787,0.16904 0.14332,0.0845 v 0.28738 l -0.15213,0.26167 -0.13523,0.49023 0.12641,0.54972 0.13522,0.24477 0.35498,0.65048 0.18596,0.17783 0.0845,0.26168 0.32118,0.19474 0.80295,0.3293 1.18918,0.16903 0.50712,0.21097 0.78605,0.20285 10e-4,0.0845 0.55784,0.1183 0.41449,0.19475 h 0.98044 l 0.50714,0.1183 0.27925,0.19474 1.03455,-0.0845 0.32118,0.0845 0.23665,0.0845 0.58286,0.44761 0.37189,0.1183 0.29616,-0.0845 0.22787,-0.41449 0.19474,-0.19474 0.56595,-0.25355 0.28737,-0.27048 0.44763,-0.67616 0.28738,-0.19474 0.47331,-0.19473 0.4057,-0.0845 0.3719,0.1183 0.32119,0.32118 0.44761,0.22787 0.50714,0.16905 h 0.0845 l 0.94075,-0.0845 0.78605,-0.24476 h 0.0933 l 0.10138,0.16092 v 0.23667 l -0.13522,0.54092 v 0.53283 l 0.16026,0.49023 0.26234,0.16092 0.85787,0.23666 0.58353,0.31307 v 0.3888 l 0.0845,0.0845 0.004,0.14404 0.35498,0.80294 0.10948,0.0845 0.44763,0.70998 0.16026,0.43951 0.10948,0.12713 0.93392,0.32118 0.24544,0.19473 0.17717,0.49024 0.38879,0.76914 h 0.29616 l 0.22787,0.28737 0.26237,0.0845 0.1264,0.0933 0.0845,0.0845 0.86299,1.08614 0.10138,0.3888 0.24477,0.19473 0.60855,0.74379 0.0845,0.20285 0.19407,0.25357 0.61734,1.5188 0.65925,0.44763 0.30429,0.34688 0.32117,0.10138 0.31307,-0.15215 0.56664,-0.14332 0.44762,0.13523 0.21097,0.21096 0.17783,0.95679 0.22787,0.3462 v 0.3293 l -0.11831,0.27925 0.0845,0.3888 0.28738,0.47332 0.27925,0.14332 0.55783,0.0933 0.79451,0.53282 0.1183,0.28737 0.11831,0.30427 0.31305,0.0845 0.68462,-8.1e-4 0.3719,0.1183 0.22787,0.30427 0.12641,0.43952 0.4821,0.15214 0.16026,0.4057 0.36377,0.47331 0.43072,0.21098 0.10138,0.27046 0.42261,0.42261 0.0845,0.17783 0.66738,1.34978 0.48144,0.65047 0.30428,0.27047 0.25355,0.32997 0.0845,0.21976 0.37191,0.37188 0.46453,0.27859 0.0845,0.37189 0.23666,0.50713 0.1264,1.13765 0.37191,0.22787 0.26234,0.50713 0.29617,0.28737 0.32929,1.07173 0.35499,1.18248 0.0845,0.20285 0.15214,0.26168 0.1264,0.21097 0.0933,0.1102 0.4483,0.55785 0.56595,0.47331 0.29617,0.88916 0.19473,1.80112 0.16026,0.43139 0.70152,1.31346 0.1264,0.63357 0.15214,0.27048 0.0845,0.0845 0.28737,0.26167 0.0846,0.29617 -0.10139,0.22786 v 0.48144 0.1102 l 0.0845,0.71844 0.13523,0.27046 0.0845,1.97779 0.19406,0.39691 0.10948,0.0845 0.10138,0.3293 v 0.4057 l 0.13522,0.25355 0.21976,0.69309 0.18594,0.16092 0.38879,0.13522 0.28737,0.25356 0.22787,0.34688 0.14333,0.53282 0.31306,0.61667 0.43952,0.4483 0.49022,0.24477 0.29616,0.65926 0.19473,0.31239 1.12414,0.50713 0.3462,0.3462 0.0845,0.26236 -0.27925,0.59976 -0.006,0.44831 0.0927,0.0933 0.67616,0.29548 0.10138,0.18594 0.10948,0.20285 0.32118,0.36311 0.19474,0.38068 0.74379,0.88578 0.31306,0.54973 h 0.3293 l 0.24478,0.10138 0.32118,0.27047 0.17783,0.38001 0.43951,0.44831 0.0845,0.18594 0.53215,0.63357 0.3719,0.78605 -0.1264,1.48169 v 0.97957 l -0.11831,0.32118 0.11831,0.92215 -0.30429,0.89674 0.0846,1.2188 0.30428,0.36311 0.13522,0.25355 0.007,0.97964 0.26235,0.69307 v 0.32118 l -3.01659,2.15441 -0.43072,0.30429 -0.98553,0.70152 -0.26234,0.18595 -0.94326,0.69307 -0.18594,0.12713 -0.27048,0.18594 -2.51196,1.84594 -2.43591,1.79185 -4.6444,3.37747 -4.86843,3.47214 -1.02777,0.73533 -2.09701,1.56959 -0.33809,0.24478 -3.93274,2.82043 -0.0845,0.0845 -3.60825,2.5965 -1.54166,1.10723 -0.65048,0.50712 -1.43179,1.04976 -1.76393,1.21798 -2.09274,1.51631 -3.18225,2.30575 -1.03535,0.75223 -1.60341,1.1672 -5.08142,3.69527 -0.31306,0.24478 -2.40291,1.7648 -1.41658,1.06247 -1.59664,1.09877 -0.38879,0.27927 -1.56534,1.11567 -0.37189,0.26169 -3.92598,2.79764 -0.52403,0.3719 -1.2839,0.91702 -2.71057,1.93811 v 0 l -4.82366,3.54144 -4.67484,3.37489 -1.11656,0.8114 -0.21096,0.15215 -7.91708,5.57082 -9.01428,6.2512 -7.50798,5.10677 -0.70153,0.51592 -5.18542,3.55239 -6.66953,4.54048 -18.24138,12.54213 -0.13522,-0.27046 -0.14332,-0.16904 -0.22786,-0.20285 -0.21975,-0.3124 -0.39759,-0.27858 -0.32998,-0.20285 -0.4057,-0.4057 -0.32929,-0.12712 -0.32118,-0.0927 -0.38881,-0.0845 -0.68462,0.1183 -0.64235,0.16903 -0.45642,0.21976 -0.56664,0.32118 -0.38068,0.32118 -0.51524,0.4057 -0.60043,0.54094 -0.44763,0.4652 -0.34688,0.36311 -0.27858,0.4564 -0.27859,0.42261 -0.30427,0.81986 -0.0845,0.52403 -0.13523,0.27859 -0.24476,0.21097 -3.26252,3.3707 -0.48212,0.47332 -0.31239,0.3631 -0.25355,0.24477 -1.589,1.58306 -2.4689,2.57877 -5.46426,5.46088 -2.00403,2.1342 -0.78605,0.83676 -0.69308,0.73534 -1.10385,1.17565 -2.19924,2.34293 -1.2568,1.24585 -2.23812,2.22715 -3.42399,3.46537 -1.23651,1.22726 -8.10897,8.12079 -5.66969,5.49977 -0.97537,0.96611 v 0 l -0.3293,0.32997 -11.92425,11.82622 -7.16658,7.153 -0.0845,0.0845 -0.97369,0.97118 -9.49004,9.46469 z"
         style="fill:none;fill-opacity:1;fill-rule:evenodd;stroke:#38474f;stroke-width:18.75;stroke-linecap:butt;stroke-linejoin:miter;stroke-miterlimit:3.86360002;stroke-dasharray:none;stroke-opacity:0.14509804"
         id="path4405"
         inkscape:connector-curvature="0" />
    </g>
    <text
       id="text1694"
       y="475.87796"
       x="213.20543"
       style="font-style:normal;font-variant:normal;font-weight:bold;font-stretch:normal;font-size:88.6965332px;line-height:125%;font-family:Chalkboard;-inkscape-font-specification:'Chalkboard, Bold';font-variant-ligatures:normal;font-variant-caps:normal;font-variant-numeric:normal;font-feature-settings:normal;text-align:start;letter-spacing:0px;word-spacing:0px;writing-mode:lr-tb;text-anchor:start;fill:#38474f;fill-opacity:1;stroke:none;stroke-width:2.21741343px;stroke-linecap:butt;stroke-linejoin:miter;stroke-opacity:1"
       xml:space="preserve"><tspan
         style="font-style:normal;font-variant:normal;font-weight:bold;font-stretch:normal;font-size:88.6965332px;font-family:Chalkboard;-inkscape-font-specification:'Chalkboard, Bold';font-variant-ligatures:normal;font-variant-caps:normal;font-variant-numeric:normal;font-feature-settings:normal;text-align:start;writing-mode:lr-tb;text-anchor:start;fill:#38474f;fill-opacity:1;stroke-width:2.21741343px"
         y="475.87796"
         x="213.20543"
         id="tspan1692"
         sodipodi:role="line">Serving people </tspan><tspan
         id="tspan1696"
         style="font-style:normal;font-variant:normal;font-weight:bold;font-stretch:normal;font-size:88.6965332px;font-family:Chalkboard;-inkscape-font-specification:'Chalkboard, Bold';font-variant-ligatures:normal;font-variant-caps:normal;font-variant-numeric:normal;font-feature-settings:normal;text-align:start;writing-mode:lr-tb;text-anchor:start;fill:#38474f;fill-opacity:1;stroke-width:2.21741343px"
         y="586.74866"
         x="213.20543"
         sodipodi:role="line">throughout </tspan><tspan
         id="tspan1698"
         style="font-style:normal;font-variant:normal;font-weight:bold;font-stretch:normal;font-size:88.6965332px;font-family:Chalkboard;-inkscape-font-specification:'Chalkboard, Bold';font-variant-ligatures:normal;font-variant-caps:normal;font-variant-numeric:normal;font-feature-settings:normal;text-align:start;writing-mode:lr-tb;text-anchor:start;fill:#38474f;fill-opacity:1;stroke-width:2.21741343px"
         y="697.61932"
         x="213.20543"
         sodipodi:role="line">the Triangle.</tspan></text>
    <path
       style="fill:#c83737;stroke-width:0.1875;stroke-miterlimit:3.86360002;stroke-dasharray:none"
       d="m 526.1811,950.22596 -3.80934,-3.17445 c -81.90088,-66.6635 -104.12204,-90.15445 -104.12204,-128.24788 0,-31.74453 25.39562,-57.14014 57.14014,-57.14014 26.03051,0 40.633,14.60248 50.79124,26.03051 10.15825,-11.42803 24.76073,-26.03051 50.79124,-26.03051 31.74452,0 57.14015,25.39561 57.14015,57.14014 0,38.09343 -22.22117,61.58438 -104.12205,128.24788 z"
       id="path1865" />
    <path
       style="fill:#c83737;stroke-width:0.1875;stroke-miterlimit:3.86360002;stroke-dasharray:none"
       d="m 475.38986,774.3613 c -24.76072,0 -44.44233,19.6816 -44.44233,44.44233 0,32.37941 20.3165,53.96569 95.23357,114.91518 74.91708,-60.94949 95.23358,-82.53577 95.23358,-114.91518 0,-24.76073 -19.68161,-44.44233 -44.44234,-44.44233 -22.22117,0 -34.28409,13.3327 -43.80744,24.12583 l -6.9838,8.25358 -6.98379,-8.25358 C 509.67395,787.694 497.61103,774.3613 475.38986,774.3613 Z"
       id="path1770" />
  </g>
</svg>
