<?xml version="1.0" encoding="UTF-8" standalone="no"?>
<!-- Created with Inkscape (http://www.inkscape.org/) -->

<svg
   xmlns:dc="http://purl.org/dc/elements/1.1/"
   xmlns:cc="http://creativecommons.org/ns#"
   xmlns:rdf="http://www.w3.org/1999/02/22-rdf-syntax-ns#"
   xmlns:svg="http://www.w3.org/2000/svg"
   xmlns="http://www.w3.org/2000/svg"
   xmlns:sodipodi="http://sodipodi.sourceforge.net/DTD/sodipodi-0.dtd"
   xmlns:inkscape="http://www.inkscape.org/namespaces/inkscape"
   width="33.27393mm"
   height="40.316147mm"
   viewBox="0 0 33.27393 40.316147"
   version="1.1"
   id="svg1911"
   sodipodi:docname="certificate.svg"
   inkscape:version="0.92.2 5c3e80d, 2017-08-06"
   inkscape:export-filename="/Users/dayne/Github/come2table/static/images/certificate.png"
   inkscape:export-xdpi="735.39697"
   inkscape:export-ydpi="735.39697">
  <defs
     id="defs1905" />
  <sodipodi:namedview
     id="base"
     pagecolor="#ffffff"
     bordercolor="#666666"
     borderopacity="1.0"
     inkscape:pageopacity="0.0"
     inkscape:pageshadow="2"
     inkscape:zoom="2.015903"
     inkscape:cx="47.003445"
     inkscape:cy="93.028324"
     inkscape:document-units="mm"
     inkscape:current-layer="layer2"
     showgrid="false"
     inkscape:window-width="1280"
     inkscape:window-height="755"
     inkscape:window-x="0"
     inkscape:window-y="1"
     inkscape:window-maximized="1"
     inkscape:snap-global="false"
     fit-margin-top="0"
     fit-margin-left="0"
     fit-margin-right="0"
     fit-margin-bottom="0"
     showguides="true"
     inkscape:guide-bbox="true" />
  <metadata
     id="metadata1908">
    <rdf:RDF>
      <cc:Work
         rdf:about="">
        <dc:format>image/svg+xml</dc:format>
        <dc:type
           rdf:resource="http://purl.org/dc/dcmitype/StillImage" />
        <dc:title></dc:title>
      </cc:Work>
    </rdf:RDF>
  </metadata>
  <g
     inkscape:label="Layer 1"
     inkscape:groupmode="layer"
     id="layer1"
     transform="translate(-91.593375,-32.37709)">
    <path
       style="opacity:0.5;fill:#38474f;fill-opacity:1;stroke:none;stroke-width:0.0504762;stroke-miterlimit:3.86360002;stroke-dasharray:none;stroke-dashoffset:0;stroke-opacity:0.14509804"
       d="m 435.29688,230.74414 -0.78516,-0.32422 -1.85547,3.69141 -3.62891,-1.97071 -2.23046,3.47657 -3.4043,-2.33789 -2.58203,3.22265 -3.14063,-2.68164 -2.9043,2.9375 -2.84374,-2.99609 -3.19532,2.61719 -2.51562,-3.27539 -3.45117,2.26757 -2.15821,-3.52148 -3.67017,1.89525 -1.51342,6.02467 v 34.97656 l 19.93945,-14.63476 19.93946,14.63476 z m -37.90226,5.90456 -0.46323,-2.90384 -1.77905,-3.72728 -3.84765,1.50195 -1.37891,-3.89258 -3.98437,1.08985 -0.96485,-4.01563 -4.07422,0.66797 -0.54101,-4.09375 -4.12305,0.23828 -0.10937,-4.1289 -4.125,-0.19336 0.32226,-4.11719 -4.08203,-0.62305 0.75195,-4.0625 -0.8789,-0.23047 -21.9375,35.26758 24.66015,-1.89453 9.20313,22.95703 z"
       id="rect2595"
       inkscape:connector-curvature="0"
       sodipodi:nodetypes="cccccccccccccccccccccccccccccccccccccccc"
       transform="scale(0.26458333)" />
    <circle
       style="opacity:0.5;fill:none;fill-opacity:1;stroke:#38474f;stroke-width:0.34881505;stroke-miterlimit:3.86360002;stroke-dasharray:none;stroke-dashoffset:0;stroke-opacity:1"
       id="path2673"
       cx="109.89652"
       cy="47.347836"
       r="12.325592" />
    <path
       inkscape:connector-curvature="0"
       id="path2675"
       d="m 121.15118,54.821615 0.16439,1.002598 -1.00726,0.13289 0.0586,1.014287 -1.01562,0.02687 -0.0477,1.014864 -1.01287,-0.07943 -0.15349,1.004322 -0.99902,-0.184873 -0.25762,0.982776 -0.97423,-0.288287 -0.35894,0.950464 -0.93875,-0.388541 -0.45633,0.907738 -0.893,-0.484541 -0.54871,0.855067 -0.83745,-0.575229 -0.63509,0.793025 -0.77274,-0.659616 -0.7145,0.722297 -0.69956,-0.736776 -0.78609,0.643655 -0.6187,-0.805864 -0.84907,0.557961 -0.53108,-0.866123 -0.90273,0.466153 -0.43766,-0.91689 -0.94651,0.369236 -0.3394,-0.957614 -0.97991,0.268279 -0.23745,-0.987847 -1.0026,0.164378 -0.13289,-1.007254 -1.01429,0.05867 -0.0269,-1.015628 -1.014867,-0.04767 0.07943,-1.012872 -1.004322,-0.153488 0.184873,-0.999021 -0.982776,-0.257625 0.288287,-0.974224 -0.950464,-0.358942 0.388541,-0.938754 -0.907738,-0.456326 0.484541,-0.892995 -0.855066,-0.548713 0.575228,-0.837457 -0.793025,-0.635083 0.659616,-0.772742 -0.722297,-0.714499 0.736776,-0.69956 -0.643655,-0.786084 0.805864,-0.618713 -0.557961,-0.84906 0.866123,-0.531088 -0.466153,-0.902731 0.91689,-0.437644 -0.369237,-0.946511 0.957614,-0.339406 -0.268279,-0.979922 0.987847,-0.237449 -0.164378,-1.002597 1.007255,-0.132889 -0.05867,-1.014288 1.015623,-0.02687 0.0477,-1.014864 1.01288,0.07943 0.15348,-1.004323 0.99902,0.184873 0.25763,-0.982776 0.97422,0.288287 0.35895,-0.950464 0.93875,0.388542 0.45633,-0.907738 0.89299,0.48454 0.54871,-0.855065 0.83745,0.575229 0.63509,-0.793026 0.77274,0.659616 0.7145,-0.722297 0.69956,0.736776 0.78609,-0.643655 0.61871,0.805864 0.84906,-0.55796 0.53109,0.866121 0.90274,-0.466153 0.43764,0.916892 0.94651,-0.369239 0.3394,0.957614 0.97992,-0.268277 0.23746,0.987846 1.00258,-0.164379 0.1329,1.007256 1.01428,-0.05868 0.027,1.015628 1.01487,0.04767 -0.0794,1.012873 1.00432,0.153486 -0.18487,0.999021 0.98277,0.257626 -0.28827,0.974224 0.95044,0.358943 -0.38853,0.938752 0.90774,0.456327 -0.48454,0.892997 0.85507,0.548711 -0.57524,0.837457 0.79303,0.635084 -0.65962,0.772741 0.7223,0.714499 -0.73677,0.699559 0.64364,0.786085 -0.80586,0.618714 0.55797,0.849058 -0.86613,0.531089 0.46616,0.90273 -0.91689,0.437644 0.36924,0.946512 -0.95762,0.339405 0.26828,0.979924 z"
       inkscape:transform-center-x="8.7742182e-05"
       style="opacity:0.85;fill:none;fill-opacity:1;stroke:#38474f;stroke-width:0.31360292;stroke-miterlimit:3.86360002;stroke-dasharray:none;stroke-dashoffset:0;stroke-opacity:1"
       inkscape:transform-center-y="-5.9201011e-06" />
    <ellipse
       cy="47.347836"
       cx="109.89652"
       id="circle2769"
       style="opacity:0.5;fill:none;fill-opacity:1;stroke:#38474f;stroke-width:0.10155299;stroke-miterlimit:3.86360002;stroke-dasharray:none;stroke-dashoffset:0;stroke-opacity:1"
       rx="12.807517"
       ry="12.877122" />
    <ellipse
       ry="11.856608"
       rx="11.792521"
       style="opacity:0.5;fill:none;fill-opacity:1;stroke:#38474f;stroke-width:0.09350491;stroke-miterlimit:3.86360002;stroke-dasharray:none;stroke-dashoffset:0;stroke-opacity:1"
       id="ellipse2771"
       cx="109.89652"
       cy="47.347836" />
    <path
       style="fill:#38474f;fill-opacity:0.14516129;stroke-width:0.05779155"
       d="m 113.83441,51.027448 c 0.71667,-0.107752 0.6787,-0.211899 0.50015,-0.860371 l 0.0866,-0.739053 c 0.30149,0.116368 0.4065,0.497733 0.54361,1.008414 0.13022,0.485018 0.14329,0.801759 0.0375,0.907589 -0.16277,0.162768 -1.55375,0.392937 -3.36386,0.556636 -0.72615,0.06567 -4.35851,0.127177 -4.65222,0.07878 -0.57417,-0.09392 -1.18453,-0.171227 -1.70486,-0.404005 -1.72411,-0.795778 -3.26522,-2.70226 -3.26522,-4.039379 0,-0.309879 0.0207,-0.375099 0.17111,-0.539799 0.18086,-0.198022 0.55044,-0.492969 0.898,-0.449046 0.2537,0.214049 0.40159,0.648691 0.70007,0.66841 0.46166,-0.476457 0.91624,-1.050335 1.4395,-1.504306 0.99212,-0.807884 2.41955,-1.541789 3.53976,-1.566835 0.67064,-10e-4 1.83244,0.185342 2.47505,0.688259 l -0.57964,0.333263 c -0.35538,-0.131517 -0.79272,-0.243151 -1.12759,-0.321661 -0.46767,-0.107554 -1.1867,-0.09487 -1.59264,0.02807 -1.10427,0.372734 -2.13095,1.090378 -2.88342,1.847427 -0.29871,0.202147 -0.94272,1.167056 -1.24288,1.186716 -0.1966,0 -0.5706,-0.231135 -0.71189,-0.438675 -0.14277,-0.209681 -0.24482,-0.236573 -0.41338,-0.108923 -0.11833,0.08961 -0.10481,0.291925 0.0507,0.758128 0.43979,1.318452 2.31025,2.95689 3.60235,3.155482 1.0629,0.163368 2.97195,0.179823 4.89264,0.04216 m 2.28458,-0.415195 -0.46414,-0.454657 c 0.24538,-0.19994 0.34991,-0.337358 0.4585,-0.60275 0.12703,-0.310501 0.14478,-0.461183 0.18352,-1.557386 0.0456,-1.289432 0.0726,-1.500939 0.21246,-1.661505 0.76911,-0.180494 1.03642,-0.05314 1.64323,-0.614977 0.29742,-0.277825 0.56502,-0.526647 0.7623,-0.526026 0.0665,2.01e-4 0.19881,0.05205 0.29416,0.115203 0.23484,0.15552 0.41086,0.145984 0.52516,-0.02843 -0.1743,-0.350093 -0.28376,-0.932244 -0.45472,-1.201223 -0.10988,-0.04217 -0.29201,0.151802 -0.40885,0.435405 -0.057,0.138439 -0.14802,0.240037 -0.25115,0.280434 -0.1777,0.06961 -0.84645,0.12794 -2.56007,0.223307 -0.61982,0.03449 -1.27375,0.09799 -1.45317,0.1411 -0.77505,0.186227 -1.46519,0.753011 -1.83732,1.508905 -0.20087,0.408029 -0.56131,1.466006 -0.63942,1.876847 l -0.55072,-0.317855 c 0.27711,-1.11903 0.66538,-2.023248 1.09982,-2.561363 0.11156,-0.13819 0.32083,-0.341757 0.59237,-0.576235 0.38324,-0.279752 0.7803,-0.448945 1.18863,-0.52807 0.28594,-0.07782 2.2154,-0.230149 2.95792,-0.233531 0.5451,-0.0025 0.95356,-0.08089 0.95356,-0.183033 0,-0.03317 0.0715,-0.160611 0.15893,-0.283226 0.35112,-0.492547 0.97956,-0.505131 1.27976,-0.134187 0.18067,0.448054 0.50973,0.946505 0.56348,1.388736 0.0252,0.24962 -0.0572,0.495644 -0.35777,0.7474 -0.17219,0.131339 -0.26204,0.156589 -0.5476,0.153897 -0.23611,-0.002 -0.37088,-0.03245 -0.43634,-0.09794 -0.30326,-0.119126 -0.59652,0.179345 -0.77791,0.350033 -0.77261,0.727263 -1.30575,0.821906 -1.34364,1.608676 l -0.0452,0.86346 c -0.0821,1.380694 -0.20796,1.36076 -0.74578,1.869009 z"
       id="path886"
       inkscape:connector-curvature="0"
       sodipodi:nodetypes="cccsccccscccccccccccccsscccccccccccccsssccccccscccccccccc" />
    <g
       id="g2818"
       transform="translate(-0.00725358,-0.53236448)">
      <path
         inkscape:label="fork"
         sodipodi:nodetypes="ccccccccccccccccccccc"
         id="path13953"
         d="m 108.10143,43.032168 c 0,-0.589629 0.73703,-0.589629 0.73703,0 l -0.14741,6.780726 c 0,0.44222 0.73704,0.44222 0.73704,1.031848 l -0.0737,3.537771 c 0,0.22111 -0.22111,0.22111 -0.22111,0 v -2.948141 c 0,-0.294815 -0.29482,-0.294815 -0.29482,0 v 2.948141 c 0,0.22111 -0.22111,0.22111 -0.22111,0 v -3.002846 c 0,-0.294815 -0.29481,-0.294815 -0.29481,0 v 3.002846 c 0,0.22111 -0.22111,0.22111 -0.22111,0 v -2.948141 c 0,-0.294815 -0.29482,-0.294815 -0.29482,0 v 2.948141 c 0,0.22111 -0.22111,0.22111 -0.22111,0 l -0.0737,-3.537771 c 0,-0.589628 0.73703,-0.589628 0.73703,-1.031848 z"
         style="fill:#38474f;fill-opacity:1;fill-rule:evenodd;stroke:#38474f;stroke-width:0.04160155px;stroke-linecap:butt;stroke-linejoin:miter;stroke-opacity:0.19607843"
         inkscape:connector-curvature="0" />
      <path
         inkscape:label="spoon"
         style="fill:#38474f;fill-opacity:1;fill-rule:evenodd;stroke:#38474f;stroke-width:0.04225029px;stroke-linecap:butt;stroke-linejoin:miter;stroke-opacity:0.19607843"
         d="m 110.77465,53.779347 c 0,0.598822 0.74854,0.598822 0.74854,0 l -0.14971,-7.036172 c 0,-0.449117 0.44913,-0.598823 0.74853,-1.197646 0.44912,-0.898234 -0.0749,-2.619851 -0.44912,-2.994116 -0.37426,-0.374265 -0.67367,-0.374265 -1.04794,0 -0.37426,0.374265 -0.89823,2.095882 -0.44911,2.994116 0.29942,0.598823 0.74853,0.748529 0.74853,1.197646 z"
         id="path13955"
         sodipodi:nodetypes="cccszzscc"
         inkscape:connector-curvature="0" />
    </g>
  </g>
  <g
     inkscape:groupmode="layer"
     id="layer2"
     inkscape:label="Layer 2">
    <g
       aria-label="Come to the Table, Inc"
       style="font-style:normal;font-variant:normal;font-weight:normal;font-stretch:normal;font-size:2.46944451px;line-height:125%;font-family:sans-serif;-inkscape-font-specification:'sans-serif, Normal';font-variant-ligatures:normal;font-variant-caps:normal;font-variant-numeric:normal;font-feature-settings:normal;text-align:start;letter-spacing:0px;word-spacing:0px;writing-mode:lr-tb;text-anchor:start;fill:#4d4d4d;fill-opacity:1;stroke:none;stroke-width:0.26458332px;stroke-linecap:butt;stroke-linejoin:miter;stroke-opacity:1"
       id="text2683">
      <path
         d="m 7.7573344,12.675963 0.2540989,0.03737 q -0.131225,0.105015 -0.2076443,0.235152 -0.076244,0.128944 -0.099051,0.284027 -0.044912,0.305396 0.1185226,0.495181 0.1622412,0.18961 0.5153552,0.241539 0.351921,0.05175 0.5630739,-0.08294 0.2099599,-0.134874 0.2548716,-0.44027 0.022807,-0.155083 -0.013087,-0.300518 -0.035718,-0.146628 -0.1311541,-0.284976 l 0.251713,0.03702 q 0.067296,0.139084 0.089366,0.287361 0.022245,0.147084 -9.128e-4,0.304554 -0.059473,0.404411 -0.3406241,0.600722 -0.2823442,0.196135 -0.7106142,0.133153 -0.4294629,-0.06316 -0.6421941,-0.332098 -0.213924,-0.269117 -0.1544511,-0.673528 0.023508,-0.159855 0.087156,-0.294308 0.06263,-0.135821 0.1655752,-0.247432 z"
         style="font-style:normal;font-variant:normal;font-weight:normal;font-stretch:normal;font-size:2.46944451px;font-family:sans-serif;-inkscape-font-specification:'sans-serif, Normal';font-variant-ligatures:normal;font-variant-caps:normal;font-variant-numeric:normal;font-feature-settings:normal;text-align:start;writing-mode:lr-tb;text-anchor:start;stroke-width:0.26458332px;fill:#4d4d4d"
         id="path2713" />
      <path
         d="m 8.5390608,11.683676 q -0.056838,0.169163 0.04272,0.312009 0.098416,0.142462 0.3281568,0.219655 0.2297408,0.07719 0.3949712,0.02459 0.1644715,-0.05413 0.2216941,-0.224438 0.056455,-0.168019 -0.043105,-0.310865 -0.099559,-0.142846 -0.3281567,-0.219655 -0.2274548,-0.07643 -0.3930694,-0.02268 -0.1667575,0.05336 -0.2232119,0.221383 z m -0.1783063,-0.05991 q 0.09217,-0.274318 0.3230909,-0.370996 0.2309203,-0.09668 0.5463852,0.0093 0.314322,0.105612 0.4411573,0.322497 0.1256923,0.2165 0.033522,0.490817 -0.092555,0.275461 -0.3234749,0.372139 -0.2316793,0.09515 -0.5460013,-0.01046 -0.3154649,-0.105996 -0.4415413,-0.321354 -0.1256922,-0.2165 -0.033138,-0.49196 z"
         style="font-style:normal;font-variant:normal;font-weight:normal;font-stretch:normal;font-size:2.46944451px;font-family:sans-serif;-inkscape-font-specification:'sans-serif, Normal';font-variant-ligatures:normal;font-variant-caps:normal;font-variant-numeric:normal;font-feature-settings:normal;text-align:start;writing-mode:lr-tb;text-anchor:start;stroke-width:0.26458332px;fill:#4d4d4d"
         id="path2715" />
      <path
         d="M 9.5962788,9.6602001 Q 9.5108745,9.5119315 9.509427,9.3760704 9.5079795,9.2402092 9.5886277,9.1057957 9.6971926,8.9248543 9.8833038,8.9029346 10.068381,8.8803945 10.302054,9.0205983 l 0.69895,0.4193706 -0.114768,0.1912809 -0.692747,-0.4156484 Q 10.027023,9.1157217 9.9110136,9.126268 9.7950043,9.1368142 9.7224209,9.2577865 9.6337079,9.4056414 9.6804424,9.5503945 9.727177,9.6951476 9.8967449,9.7968885 L 10.551236,10.189583 10.436467,10.380864 9.7437201,9.9652156 q -0.1675,-0.1005001 -0.2824753,-0.089333 -0.1160093,0.010546 -0.1898334,0.1335868 -0.087472,0.145787 -0.039704,0.29116 0.046734,0.144753 0.2152685,0.245874 l 0.6544909,0.392694 -0.1147688,0.191281 -1.1580246,-0.694815 0.1147685,-0.191281 0.1799074,0.107945 Q 9.055936,10.22329 9.059865,10.101904 9.0637941,9.9805179 9.1388589,9.8554099 9.2145442,9.7292679 9.3313806,9.6798451 9.4488375,9.6293883 9.5962788,9.6602001 Z"
         style="font-style:normal;font-variant:normal;font-weight:normal;font-stretch:normal;font-size:2.46944451px;font-family:sans-serif;-inkscape-font-specification:'sans-serif, Normal';font-variant-ligatures:normal;font-variant-caps:normal;font-variant-numeric:normal;font-feature-settings:normal;text-align:start;writing-mode:lr-tb;text-anchor:start;stroke-width:0.26458332px;fill:#4d4d4d"
         id="path2717" />
      <path
         d="m 11.572539,7.7708387 0.07898,0.074425 -0.699594,0.7423992 q 0.176656,0.1465889 0.348758,0.1397742 0.172052,-0.00852 0.323382,-0.1691091 0.08766,-0.093019 0.146708,-0.2013963 0.05988,-0.1092546 0.09529,-0.2382547 l 0.152692,0.1438883 q -0.04501,0.1216082 -0.111707,0.2310651 -0.0667,0.109457 -0.15518,0.2033538 -0.221621,0.2351809 -0.488347,0.2439514 -0.2659,0.00789 -0.499326,-0.2120741 -0.241323,-0.2274096 -0.260219,-0.4904236 -0.01895,-0.2647185 0.189443,-0.4858586 0.186889,-0.1983242 0.42334,-0.1925481 0.236399,0.00407 0.455785,0.2108076 z m -0.199545,0.1168124 q -0.134163,-0.1231135 -0.281778,-0.1247026 -0.146788,-0.00247 -0.259252,0.1168789 -0.12735,0.1351412 -0.127909,0.2886966 2.67e-4,0.1526778 0.127341,0.2956206 z"
         style="font-style:normal;font-variant:normal;font-weight:normal;font-stretch:normal;font-size:2.46944451px;font-family:sans-serif;-inkscape-font-specification:'sans-serif, Normal';font-variant-ligatures:normal;font-variant-caps:normal;font-variant-numeric:normal;font-feature-settings:normal;text-align:start;writing-mode:lr-tb;text-anchor:start;stroke-width:0.26458332px;fill:#4d4d4d"
         id="path2719" />
      <path
         d="m 12.221481,5.997805 0.214375,0.3179138 0.378897,-0.2554965 0.0964,0.1429612 -0.378897,0.2554965 0.409873,0.6078353 q 0.09236,0.1369629 0.155637,0.1510094 0.06428,0.013372 0.17925,-0.064153 L 13.465966,7.0259605 13.569782,7.1799188 13.380834,7.30733 Q 13.167891,7.4509204 13.033657,7.4265466 12.898748,7.401173 12.75718,7.1912299 l -0.409873,-0.6078352 -0.134963,0.091008 -0.0964,-0.1429613 0.134964,-0.091008 -0.214374,-0.3179138 z"
         style="font-style:normal;font-variant:normal;font-weight:normal;font-stretch:normal;font-size:2.46944451px;font-family:sans-serif;-inkscape-font-specification:'sans-serif, Normal';font-variant-ligatures:normal;font-variant-caps:normal;font-variant-numeric:normal;font-feature-settings:normal;text-align:start;writing-mode:lr-tb;text-anchor:start;stroke-width:0.26458332px;fill:#4d4d4d"
         id="path2721" />
      <path
         d="m 13.762946,5.7233176 q -0.160121,0.078789 -0.191412,0.2500718 -0.03182,0.1702013 0.07518,0.3876635 0.107003,0.2174623 0.260718,0.2977127 0.154265,0.078636 0.315468,-6.848e-4 0.15904,-0.078256 0.19033,-0.2495394 0.03129,-0.1712832 -0.07518,-0.3876635 -0.105938,-0.2152985 -0.260735,-0.2950166 -0.155329,-0.0808 -0.314369,-0.00254 z m -0.08305,-0.1687767 q 0.259656,-0.1277652 0.490924,-0.031921 0.231268,0.095844 0.378198,0.3944489 0.146398,0.297523 0.08176,0.5403142 -0.06517,0.2417094 -0.324829,0.3694747 Q 14.04521,6.9551551 13.813942,6.8593111 13.583224,6.7618529 13.436826,6.4643299 13.289896,6.165725 13.353987,5.924548 13.41916,5.6828386 13.679899,5.5545409 Z"
         style="font-style:normal;font-variant:normal;font-weight:normal;font-stretch:normal;font-size:2.46944451px;font-family:sans-serif;-inkscape-font-specification:'sans-serif, Normal';font-variant-ligatures:normal;font-variant-caps:normal;font-variant-numeric:normal;font-feature-settings:normal;text-align:start;writing-mode:lr-tb;text-anchor:start;stroke-width:0.26458332px;fill:#4d4d4d"
         id="path2723" />
      <path
         d="m 15.758458,4.4319728 0.08874,0.3730284 0.444584,-0.1057665 0.03991,0.1677455 -0.444584,0.1057665 0.169673,0.7132115 q 0.03823,0.1607072 0.09252,0.1961305 0.05546,0.035144 0.190359,0.00305 l 0.221706,-0.052744 0.04298,0.1806489 -0.221706,0.052744 q -0.249858,0.059441 -0.366921,-0.010625 -0.117342,-0.071239 -0.175946,-0.3175787 l -0.169673,-0.7132115 -0.158361,0.037674 -0.03991,-0.1677455 0.158361,-0.037674 -0.08874,-0.3730284 z"
         style="font-style:normal;font-variant:normal;font-weight:normal;font-stretch:normal;font-size:2.46944451px;font-family:sans-serif;-inkscape-font-specification:'sans-serif, Normal';font-variant-ligatures:normal;font-variant-caps:normal;font-variant-numeric:normal;font-feature-settings:normal;text-align:start;writing-mode:lr-tb;text-anchor:start;stroke-width:0.26458332px;fill:#4d4d4d"
         id="path2725" />
      <path
         d="m 17.934886,5.0401098 0.07616,0.8115436 -0.220894,0.02073 -0.07549,-0.8043406 q -0.01791,-0.1908808 -0.101246,-0.2787357 -0.08333,-0.087855 -0.232195,-0.073884 -0.178876,0.016787 -0.271416,0.1405247 -0.09254,0.1237375 -0.07406,0.3206209 l 0.07132,0.7599217 -0.222094,0.020843 -0.175308,-1.8679909 0.222094,-0.020843 0.06873,0.7323101 q 0.06786,-0.1286873 0.169067,-0.1987399 0.102412,-0.070165 0.242871,-0.083347 0.231699,-0.021744 0.364069,0.1111627 0.132257,0.1317066 0.158396,0.4102245 z"
         style="font-style:normal;font-variant:normal;font-weight:normal;font-stretch:normal;font-size:2.46944451px;font-family:sans-serif;-inkscape-font-specification:'sans-serif, Normal';font-variant-ligatures:normal;font-variant-caps:normal;font-variant-numeric:normal;font-feature-settings:normal;text-align:start;writing-mode:lr-tb;text-anchor:start;stroke-width:0.26458332px;fill:#4d4d4d"
         id="path2727" />
      <path
         d="m 19.664597,5.2089669 -0.0081,0.1082195 -1.017263,-0.075931 q -0.0026,0.2295403 0.11105,0.358939 0.114966,0.128286 0.335012,0.1447108 0.127458,0.00951 0.248833,-0.012864 0.122578,-0.022288 0.245084,-0.076019 l -0.01562,0.2092243 q -0.122811,0.041617 -0.249839,0.058736 -0.127029,0.017119 -0.255689,0.00752 -0.322254,-0.024054 -0.497035,-0.2257255 -0.173579,-0.2015819 -0.149705,-0.5214305 0.02468,-0.3306706 0.217093,-0.5109797 0.193704,-0.1814218 0.496718,-0.158804 0.271751,0.020284 0.416167,0.2075979 0.145707,0.186201 0.123269,0.4868106 z M 19.448195,5.1275207 Q 19.459343,4.945773 19.367618,4.830104 19.277096,4.7145248 19.113565,4.7023183 18.928389,4.6884963 18.808754,4.7847614 18.690321,4.8811163 18.659306,5.069845 Z"
         style="font-style:normal;font-variant:normal;font-weight:normal;font-stretch:normal;font-size:2.46944451px;font-family:sans-serif;-inkscape-font-specification:'sans-serif, Normal';font-variant-ligatures:normal;font-variant-caps:normal;font-variant-numeric:normal;font-feature-settings:normal;text-align:start;writing-mode:lr-tb;text-anchor:start;stroke-width:0.26458332px;fill:#4d4d4d"
         id="path2729" />
      <path
         d="m 21.067326,4.3986735 1.447621,0.4728958 -0.06365,0.1948501 -0.607474,-0.198444 -0.495361,1.516392 -0.232674,-0.076008 0.495361,-1.516392 -0.607474,-0.198444 z"
         style="font-style:normal;font-variant:normal;font-weight:normal;font-stretch:normal;font-size:2.46944451px;font-family:sans-serif;-inkscape-font-specification:'sans-serif, Normal';font-variant-ligatures:normal;font-variant-caps:normal;font-variant-numeric:normal;font-feature-settings:normal;text-align:start;writing-mode:lr-tb;text-anchor:start;stroke-width:0.26458332px;fill:#4d4d4d"
         id="path2731" />
      <path
         d="M 22.63617,6.1957736 Q 22.3953,6.0762604 22.275076,6.085257 q -0.120224,0.009 -0.186144,0.141853 -0.05252,0.1058532 -0.01448,0.2028007 0.03966,0.096403 0.159555,0.1558919 0.165261,0.081998 0.322514,0.014649 0.158869,-0.067893 0.255337,-0.2623169 l 0.02197,-0.044285 z m 0.43714,0.1145973 -0.342462,0.6902056 -0.198744,-0.098612 0.09111,-0.1836227 q -0.122713,0.07641 -0.250507,0.078959 -0.127257,0.00147 -0.274155,-0.071418 -0.185783,-0.09218 -0.244507,-0.2505385 -0.05711,-0.1589023 0.02971,-0.333884 0.101291,-0.2041453 0.288838,-0.2403105 0.188626,-0.035629 0.45974,0.09889 l 0.278675,0.1382708 0.0096,-0.019443 Q 22.988719,5.9816906 22.934967,5.862143 22.882831,5.7420512 22.719731,5.6611252 22.616038,5.6096757 22.50542,5.5857488 22.394801,5.561822 22.279417,5.5664897 l 0.09111,-0.1836227 q 0.129995,0.012004 0.242791,0.042395 0.113331,0.029311 0.210543,0.077545 0.262473,0.1302318 0.324561,0.3306406 0.06209,0.2004089 -0.07511,0.4769232 z"
         style="font-style:normal;font-variant:normal;font-weight:normal;font-stretch:normal;font-size:2.46944451px;font-family:sans-serif;-inkscape-font-specification:'sans-serif, Normal';font-variant-ligatures:normal;font-variant-caps:normal;font-variant-numeric:normal;font-feature-settings:normal;text-align:start;writing-mode:lr-tb;text-anchor:start;stroke-width:0.26458332px;fill:#4d4d4d"
         id="path2733" />
      <path
         d="m 24.312871,7.2435793 q 0.142042,-0.1993448 0.140022,-0.3710502 -3.38e-4,-0.1719877 -0.14371,-0.2741461 -0.143371,-0.1021585 -0.307025,-0.047023 -0.161973,0.054853 -0.304015,0.2541978 -0.142042,0.1993448 -0.141704,0.3713324 0.002,0.1717054 0.145392,0.2738639 0.143371,0.1021584 0.305343,0.047306 0.163655,-0.055135 0.305697,-0.25448 z M 23.971732,6.4215978 q 0.126927,-0.057616 0.246929,-0.043177 0.121683,0.014157 0.242468,0.100222 0.200327,0.1427419 0.211686,0.3906888 0.01234,0.2486466 -0.172383,0.507893 Q 24.315707,7.6364713 24.076658,7.7059908 23.838591,7.77621 23.638264,7.633468 23.517479,7.547403 23.463668,7.4379927 23.411538,7.3283 23.424554,7.1895171 l -0.117552,0.164975 -0.181669,-0.1294473 1.088757,-1.5279827 0.181669,0.1294473 z"
         style="font-style:normal;font-variant:normal;font-weight:normal;font-stretch:normal;font-size:2.46944451px;font-family:sans-serif;-inkscape-font-specification:'sans-serif, Normal';font-variant-ligatures:normal;font-variant-caps:normal;font-variant-numeric:normal;font-feature-settings:normal;text-align:start;writing-mode:lr-tb;text-anchor:start;stroke-width:0.26458332px;fill:#4d4d4d"
         id="path2735" />
      <path
         d="M 25.643166,6.8015436 25.806641,6.9515428 24.538169,8.3339695 24.374695,8.1839703 Z"
         style="font-style:normal;font-variant:normal;font-weight:normal;font-stretch:normal;font-size:2.46944451px;font-family:sans-serif;-inkscape-font-specification:'sans-serif, Normal';font-variant-ligatures:normal;font-variant-caps:normal;font-variant-numeric:normal;font-feature-settings:normal;text-align:start;writing-mode:lr-tb;text-anchor:start;stroke-width:0.26458332px;fill:#4d4d4d"
         id="path2737" />
      <path
         d="M 26.184489,9.0523033 26.102052,9.122878 25.43865,8.3479672 q -0.164625,0.1599827 -0.176237,0.331828 -0.0099,0.1719771 0.13359,0.3395997 0.08312,0.097093 0.184568,0.1673856 0.102232,0.071209 0.22671,0.1201974 L 25.647902,9.4434223 Q 25.5318,9.3856761 25.430095,9.3076668 25.328391,9.2296575 25.244485,9.1316487 25.03433,8.8861687 25.054107,8.6200319 q 0.02056,-0.2652209 0.26421,-0.4738084 0.251892,-0.2156449 0.515419,-0.2063316 0.265228,0.00944 0.462837,0.2402695 0.177221,0.2070093 0.146215,0.4414892 -0.02931,0.2346118 -0.258299,0.4306527 z M 26.089665,8.8414199 Q 26.226409,8.7211793 26.24376,8.5745791 26.261896,8.4288948 26.15525,8.3043229 26.034489,8.1632635 25.881872,8.1463004 25.73004,8.1302534 25.574338,8.2413277 Z"
         style="font-style:normal;font-variant:normal;font-weight:normal;font-stretch:normal;font-size:2.46944451px;font-family:sans-serif;-inkscape-font-specification:'sans-serif, Normal';font-variant-ligatures:normal;font-variant-caps:normal;font-variant-numeric:normal;font-feature-settings:normal;text-align:start;writing-mode:lr-tb;text-anchor:start;stroke-width:0.26458332px;fill:#4d4d4d"
         id="path2739" />
      <path
         d="m 26.112334,9.7157803 0.139868,0.2125242 -0.173243,0.1140155 -0.431024,0.04694 -0.08551,-0.1299316 0.376668,-0.1295302 z"
         style="font-style:normal;font-variant:normal;font-weight:normal;font-stretch:normal;font-size:2.46944451px;font-family:sans-serif;-inkscape-font-specification:'sans-serif, Normal';font-variant-ligatures:normal;font-variant-caps:normal;font-variant-numeric:normal;font-feature-settings:normal;text-align:start;writing-mode:lr-tb;text-anchor:start;stroke-width:0.26458332px;fill:#4d4d4d"
         id="path2741" />
      <path
         d="m 28.249457,10.492141 0.09766,0.223132 -1.64919,0.721815 -0.09766,-0.223132 z"
         style="font-style:normal;font-variant:normal;font-weight:normal;font-stretch:normal;font-size:2.46944451px;font-family:sans-serif;-inkscape-font-specification:'sans-serif, Normal';font-variant-ligatures:normal;font-variant-caps:normal;font-variant-numeric:normal;font-feature-settings:normal;text-align:start;writing-mode:lr-tb;text-anchor:start;stroke-width:0.26458332px;fill:#4d4d4d"
         id="path2743" />
      <path
         d="m 27.984741,12.722056 -0.782064,0.229738 -0.06253,-0.21287 0.775123,-0.227699 q 0.183947,-0.05404 0.254271,-0.152611 0.07033,-0.09858 0.02818,-0.242032 -0.05064,-0.172378 -0.18977,-0.239585 -0.139133,-0.06721 -0.328864,-0.01147 l -0.732318,0.215124 -0.06287,-0.214026 1.295728,-0.380631 0.06287,0.214027 -0.201301,0.05913 q 0.139277,0.04203 0.227369,0.128003 0.08843,0.08713 0.128193,0.222485 0.06559,0.223282 -0.03959,0.378597 -0.104026,0.154975 -0.372426,0.23382 z"
         style="font-style:normal;font-variant:normal;font-weight:normal;font-stretch:normal;font-size:2.46944451px;font-family:sans-serif;-inkscape-font-specification:'sans-serif, Normal';font-variant-ligatures:normal;font-variant-caps:normal;font-variant-numeric:normal;font-feature-settings:normal;text-align:start;writing-mode:lr-tb;text-anchor:start;stroke-width:0.26458332px;fill:#4d4d4d"
         id="path2745" />
      <path
         d="m 28.692409,14.195177 -0.205804,0.02563 q 0.03983,-0.09974 0.05318,-0.197395 0.0147,-0.09661 0.0028,-0.192331 -0.02668,-0.214181 -0.177837,-0.315648 -0.149964,-0.101616 -0.395254,-0.07106 -0.24529,0.03055 -0.366941,0.166 -0.120454,0.135299 -0.09378,0.349479 0.01192,0.09572 0.04867,0.185923 0.0381,0.09125 0.101174,0.178169 l -0.203411,0.02534 q -0.05455,-0.08677 -0.08846,-0.183398 -0.03376,-0.09543 -0.04762,-0.206711 -0.03771,-0.302724 0.130337,-0.504705 0.168043,-0.201981 0.491108,-0.242221 0.327851,-0.04084 0.538063,0.115245 0.210361,0.157279 0.249409,0.470772 0.01267,0.101705 0.0032,0.201307 -0.0083,0.09945 -0.03882,0.195607 z"
         style="font-style:normal;font-variant:normal;font-weight:normal;font-stretch:normal;font-size:2.46944451px;font-family:sans-serif;-inkscape-font-specification:'sans-serif, Normal';font-variant-ligatures:normal;font-variant-caps:normal;font-variant-numeric:normal;font-feature-settings:normal;text-align:start;writing-mode:lr-tb;text-anchor:start;stroke-width:0.26458332px;fill:#4d4d4d"
         id="path2747" />
    </g>
    <g
       aria-label="Donor Club"
       style="font-style:normal;font-weight:normal;font-size:10.58333302px;line-height:125%;font-family:sans-serif;letter-spacing:0px;word-spacing:0px;fill:#4d4d4d;fill-opacity:1;stroke:none;stroke-width:0.26458332px;stroke-linecap:butt;stroke-linejoin:miter;stroke-opacity:1"
       id="text2700">
      <path
         d="m 13.061581,23.289411 -0.69088,1.217557 0.255886,0.145198 q 0.324053,0.183878 0.557329,0.122153 0.234325,-0.06113 0.414038,-0.377841 0.178522,-0.314614 0.110222,-0.546076 -0.06666,-0.231915 -0.390709,-0.415793 z m -0.113058,-0.294291 0.435217,0.246955 q 0.455141,0.258262 0.560322,0.568879 0.105776,0.309569 -0.122732,0.712275 -0.229699,0.404804 -0.551345,0.473226 -0.321646,0.06842 -0.77469,-0.188649 L 12.060079,24.56085 Z"
         style="font-style:normal;font-variant:normal;font-weight:normal;font-stretch:normal;font-size:2.46944451px;font-family:sans-serif;-inkscape-font-specification:'sans-serif, Normal';font-variant-ligatures:normal;font-variant-caps:normal;font-variant-numeric:normal;font-feature-settings:normal;text-align:start;letter-spacing:0.04497917px;writing-mode:lr-tb;text-anchor:start;stroke-width:0.26458332px;fill:#4d4d4d"
         id="path2750" />
      <path
         d="m 14.68281,24.537636 q -0.166841,-0.06333 -0.313426,0.03064 -0.146157,0.09284 -0.232166,0.319428 -0.08601,0.226587 -0.03983,0.393726 0.04774,0.16644 0.215707,0.230198 0.165713,0.0629 0.312298,-0.03106 0.146585,-0.09397 0.232166,-0.319428 0.08515,-0.224333 0.03784,-0.3919 -0.04688,-0.168694 -0.212596,-0.231596 z m 0.06675,-0.17586 q 0.270553,0.102698 0.35824,0.33718 0.08769,0.234482 -0.03042,0.545618 -0.117674,0.310008 -0.339295,0.428371 -0.221194,0.117236 -0.491747,0.01454 -0.271679,-0.103125 -0.359367,-0.337607 -0.08613,-0.235182 0.03154,-0.54519 0.118102,-0.311136 0.338169,-0.4288 0.221193,-0.117236 0.492873,-0.01411 z"
         style="font-style:normal;font-variant:normal;font-weight:normal;font-stretch:normal;font-size:2.46944451px;font-family:sans-serif;-inkscape-font-specification:'sans-serif, Normal';font-variant-ligatures:normal;font-variant-caps:normal;font-variant-numeric:normal;font-feature-settings:normal;text-align:start;letter-spacing:0.04497917px;writing-mode:lr-tb;text-anchor:start;stroke-width:0.26458332px;fill:#4d4d4d"
         id="path2752" />
      <path
         d="m 16.51016,25.442831 -0.180359,0.794905 -0.216365,-0.04909 0.178759,-0.78785 q 0.04242,-0.186967 -0.0094,-0.296404 -0.05183,-0.109438 -0.197639,-0.142522 -0.175208,-0.03975 -0.301681,0.04901 -0.126474,0.08876 -0.17023,0.281611 l -0.168886,0.744342 -0.217541,-0.04936 0.29882,-1.317002 0.217541,0.04936 -0.04642,0.204606 q 0.104556,-0.101156 0.222551,-0.136205 0.119171,-0.03478 0.256751,-0.0036 0.226947,0.05149 0.311345,0.219014 0.08466,0.166345 0.02276,0.439153 z"
         style="font-style:normal;font-variant:normal;font-weight:normal;font-stretch:normal;font-size:2.46944451px;font-family:sans-serif;-inkscape-font-specification:'sans-serif, Normal';font-variant-ligatures:normal;font-variant-caps:normal;font-variant-numeric:normal;font-feature-settings:normal;text-align:start;letter-spacing:0.04497917px;writing-mode:lr-tb;text-anchor:start;stroke-width:0.26458332px;fill:#4d4d4d"
         id="path2754" />
      <path
         d="m 17.437494,25.162421 q -0.177829,-0.01495 -0.292878,0.115745 -0.114948,0.129492 -0.13525,0.371003 -0.0203,0.24151 0.07011,0.389475 0.09172,0.146864 0.270748,0.161913 0.176628,0.01485 0.291677,-0.115846 0.115049,-0.130693 0.135249,-0.371002 0.0201,-0.239108 -0.07152,-0.387173 -0.09152,-0.149267 -0.268143,-0.164115 z m 0.01576,-0.187441 q 0.288371,0.02424 0.437227,0.225519 0.148855,0.201278 0.120979,0.532905 -0.02778,0.330425 -0.208245,0.505231 -0.180368,0.173604 -0.468739,0.149363 -0.289572,-0.02434 -0.438428,-0.22562 -0.147553,-0.202378 -0.119777,-0.532804 0.02788,-0.331626 0.207042,-0.505331 0.180368,-0.173604 0.469941,-0.149263 z"
         style="font-style:normal;font-variant:normal;font-weight:normal;font-stretch:normal;font-size:2.46944451px;font-family:sans-serif;-inkscape-font-specification:'sans-serif, Normal';font-variant-ligatures:normal;font-variant-caps:normal;font-variant-numeric:normal;font-feature-settings:normal;text-align:start;letter-spacing:0.04497917px;writing-mode:lr-tb;text-anchor:start;stroke-width:0.26458332px;fill:#4d4d4d"
         id="path2756" />
      <path
         d="m 19.11487,25.229719 q -0.03803,-0.02055 -0.08291,-0.02882 -0.04372,-0.0095 -0.09675,-0.0079 -0.188014,0.0058 -0.285486,0.131794 -0.0963,0.124791 -0.08929,0.353783 l 0.02178,0.711078 -0.222965,0.0068 -0.04135,-1.349844 0.222965,-0.0068 0.0064,0.209708 q 0.06614,-0.125074 0.176412,-0.187563 0.11024,-0.06369 0.270533,-0.0686 0.0229,-7.02e-4 0.05073,0.0021 0.02779,0.0016 0.06172,0.0066 z"
         style="font-style:normal;font-variant:normal;font-weight:normal;font-stretch:normal;font-size:2.46944451px;font-family:sans-serif;-inkscape-font-specification:'sans-serif, Normal';font-variant-ligatures:normal;font-variant-caps:normal;font-variant-numeric:normal;font-feature-settings:normal;text-align:start;letter-spacing:0.04497917px;writing-mode:lr-tb;text-anchor:start;stroke-width:0.26458332px;fill:#4d4d4d"
         id="path2758" />
      <path
         d="m 21.205397,24.317558 0.05766,0.250276 q -0.145567,-0.08401 -0.29459,-0.107838 -0.147849,-0.02409 -0.300599,0.0111 -0.300801,0.0693 -0.418101,0.290591 -0.117571,0.220116 -0.03744,0.567918 0.07986,0.346626 0.282158,0.494286 0.20203,0.146485 0.502831,0.07719 0.15275,-0.03519 0.275153,-0.121547 0.123577,-0.08663 0.217711,-0.225864 l 0.05712,0.247926 q -0.10506,0.113294 -0.23514,0.187808 -0.128905,0.07424 -0.284005,0.109976 -0.398327,0.09177 -0.683488,-0.09867 -0.285432,-0.191613 -0.382614,-0.61344 -0.09745,-0.423001 0.07564,-0.719014 0.17282,-0.297188 0.571146,-0.388956 0.157451,-0.03627 0.305846,-0.02592 0.1493,0.0089 0.290721,0.06418 z"
         style="font-style:normal;font-variant:normal;font-weight:normal;font-stretch:normal;font-size:2.46944451px;font-family:sans-serif;-inkscape-font-specification:'sans-serif, Normal';font-variant-ligatures:normal;font-variant-caps:normal;font-variant-numeric:normal;font-feature-settings:normal;text-align:start;letter-spacing:0.04497917px;writing-mode:lr-tb;text-anchor:start;stroke-width:0.26458332px;fill:#4d4d4d"
         id="path2760" />
      <path
         d="m 21.349927,24.017852 0.209503,-0.07302 0.617529,1.77166 -0.209502,0.07302 z"
         style="font-style:normal;font-variant:normal;font-weight:normal;font-stretch:normal;font-size:2.46944451px;font-family:sans-serif;-inkscape-font-specification:'sans-serif, Normal';font-variant-ligatures:normal;font-variant-caps:normal;font-variant-numeric:normal;font-feature-settings:normal;text-align:start;letter-spacing:0.04497917px;writing-mode:lr-tb;text-anchor:start;stroke-width:0.26458332px;fill:#4d4d4d"
         id="path2762" />
      <path
         d="m 22.4096,25.072706 -0.346588,-0.740417 0.200939,-0.09406 0.34301,0.732772 q 0.08128,0.173638 0.189882,0.229309 0.108092,0.05458 0.243508,-0.0088 0.162717,-0.07617 0.208071,-0.223876 0.04645,-0.148219 -0.03739,-0.327317 l -0.324607,-0.693459 0.200939,-0.09406 0.572535,1.223108 -0.200939,0.09406 -0.08792,-0.187835 q -0.02103,0.14564 -0.09266,0.245739 -0.07105,0.0985 -0.198824,0.158305 -0.210768,0.09866 -0.381317,0.01873 -0.170549,-0.07993 -0.288634,-0.332194 z"
         style="font-style:normal;font-variant:normal;font-weight:normal;font-stretch:normal;font-size:2.46944451px;font-family:sans-serif;-inkscape-font-specification:'sans-serif, Normal';font-variant-ligatures:normal;font-variant-caps:normal;font-variant-numeric:normal;font-feature-settings:normal;text-align:start;letter-spacing:0.04497917px;writing-mode:lr-tb;text-anchor:start;stroke-width:0.26458332px;fill:#4d4d4d"
         id="path2764" />
      <path
         d="m 24.54364,23.734466 q -0.134039,-0.204812 -0.294722,-0.265374 -0.160334,-0.06223 -0.307637,0.03417 -0.147304,0.0964 -0.15546,0.268902 -0.0078,0.17083 0.126232,0.375642 0.134038,0.204812 0.294373,0.267043 0.160683,0.06056 0.307986,-0.03584 0.147303,-0.0964 0.155111,-0.267233 0.0082,-0.172499 -0.125883,-0.377311 z m -0.889761,0.01885 q -0.0075,-0.139189 0.04958,-0.245723 0.05744,-0.108203 0.181538,-0.189419 0.20582,-0.134699 0.440921,-0.05511 0.236109,0.07893 0.410426,0.345285 0.174316,0.266357 0.152141,0.51432 -0.02117,0.247303 -0.226988,0.382002 -0.124097,0.08122 -0.245586,0.09155 -0.121139,0.0087 -0.245686,-0.05393 l 0.110929,0.1695 -0.186652,0.122153 -1.027411,-1.569888 0.186652,-0.122154 z"
         style="font-style:normal;font-variant:normal;font-weight:normal;font-stretch:normal;font-size:2.46944451px;font-family:sans-serif;-inkscape-font-specification:'sans-serif, Normal';font-variant-ligatures:normal;font-variant-caps:normal;font-variant-numeric:normal;font-feature-settings:normal;text-align:start;letter-spacing:0.04497917px;writing-mode:lr-tb;text-anchor:start;stroke-width:0.26458332px;fill:#4d4d4d"
         id="path2766" />
    </g>
  </g>
</svg>
