<?xml version="1.0" encoding="UTF-8" standalone="no"?>
<!-- Created with Inkscape (http://www.inkscape.org/) -->

<svg
   xmlns:dc="http://purl.org/dc/elements/1.1/"
   xmlns:cc="http://creativecommons.org/ns#"
   xmlns:rdf="http://www.w3.org/1999/02/22-rdf-syntax-ns#"
   xmlns:svg="http://www.w3.org/2000/svg"
   xmlns="http://www.w3.org/2000/svg"
   xmlns:sodipodi="http://sodipodi.sourceforge.net/DTD/sodipodi-0.dtd"
   xmlns:inkscape="http://www.inkscape.org/namespaces/inkscape"
   width="218.6331mm"
   height="114.29867mm"
   viewBox="0 0 218.6331 114.29867"
   version="1.1"
   id="svg8"
   inkscape:version="0.92.2 5c3e80d, 2017-08-06"
   sodipodi:docname="chicken.svg">
  <defs
     id="defs2" />
  <sodipodi:namedview
     id="base"
     pagecolor="#ffffff"
     bordercolor="#666666"
     borderopacity="1.0"
     inkscape:pageopacity="0.0"
     inkscape:pageshadow="2"
     inkscape:zoom="0.57717591"
     inkscape:cx="450.72206"
     inkscape:cy="193.0967"
     inkscape:document-units="mm"
     inkscape:current-layer="layer1"
     showgrid="false"
     fit-margin-top="0"
     fit-margin-left="0"
     fit-margin-right="0"
     fit-margin-bottom="0"
     inkscape:window-width="1280"
     inkscape:window-height="755"
     inkscape:window-x="0"
     inkscape:window-y="1"
     inkscape:window-maximized="1" />
  <metadata
     id="metadata5">
    <rdf:RDF>
      <cc:Work
         rdf:about="">
        <dc:format>image/svg+xml</dc:format>
        <dc:type
           rdf:resource="http://purl.org/dc/dcmitype/StillImage" />
        <dc:title></dc:title>
      </cc:Work>
    </rdf:RDF>
  </metadata>
  <g
     inkscape:label="Layer 1"
     inkscape:groupmode="layer"
     id="layer1"
     transform="translate(1.1227316,-51.023975)">
    <path
       style="fill:#38474f;fill-opacity:1;stroke-width:0.80168068"
       d="m 162.82095,151.87603 c 9.9416,-1.49477 9.41498,-2.93946 6.93807,-11.93502 l 1.20064,-10.25212 c 4.18218,1.61427 5.63893,6.90454 7.54091,13.98869 1.80639,6.72816 1.98778,11.12194 0.51976,12.59 -2.25789,2.25787 -21.55343,5.45082 -46.66326,7.72163 -10.07304,0.91097 -60.460788,1.76423 -64.535268,1.09284 -7.96477,-1.30286 -16.43159,-2.37524 -23.64958,-5.6044 -23.91685,-11.03891 -45.2949536,-37.48554 -45.2949536,-56.03392 0,-4.298685 0.28678704,-5.203425 2.373533,-7.488135 2.508905,-2.7469 7.635772,-6.8384 12.4571076,-6.22909 3.519313,2.9693 5.570782,8.9986 9.711313,9.27214 6.40416,-6.60936 12.70992,-14.570201 19.96868,-20.867627 13.76259,-11.206893 33.56382,-21.387597 49.10327,-21.735041 9.303078,-0.01136 25.419518,2.571062 34.333778,9.547518 l -8.04077,4.622985 c -4.92978,-1.824447 -10.99662,-3.372993 -15.64189,-4.46207 -6.487478,-1.492011 -16.461908,-1.316103 -22.092908,0.389639 -15.31847,5.170526 -29.56041,15.125636 -39.99866,25.627356 -4.14366,2.80419 -13.07737,16.189345 -17.24114,16.462085 -2.72721,0 -7.915292,-3.20633 -9.875389,-6.08527 -1.980376,-2.908735 -3.39604,-3.281765 -5.7342766,-1.51101 -1.64154,1.24314 -1.453847,4.04963 0.703332,10.51673 6.1006976,18.28947 32.0476036,41.01777 49.9714036,43.77265 14.74452,2.26623 41.226828,2.49445 67.870528,0.5849 m 31.69147,-5.75954 -6.43848,-6.30694 c 3.40399,-2.77357 4.85402,-4.67984 6.36027,-8.36132 1.76221,-4.30728 2.00855,-6.39755 2.54572,-21.60396 0.63184,-17.886945 1.00703,-20.820935 2.94732,-23.048325 10.66907,-2.503801 14.37725,-0.73723 22.79479,-8.530893 4.12583,-3.853963 7.83788,-7.305639 10.57449,-7.297012 0.92163,0.0029 2.75798,0.722039 4.08074,1.598081 3.25756,2.157375 5.69934,2.025089 7.2848,-0.394639 -2.41778,-4.856446 -3.93625,-12.932052 -6.30781,-16.663288 -1.5242,-0.584891 -4.0507,2.105763 -5.67143,6.039931 -0.79114,1.920378 -2.05337,3.32978 -3.48399,3.890174 -2.46505,0.965608 -11.74191,1.774784 -35.51314,3.097659 -8.59803,0.478484 -17.66927,1.359293 -20.15827,1.957351 -10.75143,2.583356 -20.32502,10.445712 -25.48715,20.931466 -2.78647,5.660135 -7.78651,20.336285 -8.87008,26.035465 l -7.639578,-4.40924 c 3.84422,-15.52312 9.230178,-28.066372 15.256708,-35.531089 1.5476,-1.916924 4.45056,-4.740809 8.21724,-7.993465 5.31638,-3.880724 10.82442,-6.227733 16.48867,-7.325373 3.96657,-1.079411 30.73194,-3.19259 41.03205,-3.239563 7.56172,-0.03454 13.22774,-1.122055 13.22774,-2.539015 0,-0.459982 0.99208,-2.227981 2.20463,-3.928883 4.87079,-6.832577 13.58848,-7.007094 17.75275,-1.861402 2.50632,6.215362 7.07092,13.129852 7.81661,19.264409 0.34951,3.462711 -0.79364,6.8756 -4.96292,10.367903 -2.38865,1.82192 -3.63501,2.172196 -7.5964,2.134882 -3.27523,-0.03091 -5.14467,-0.450451 -6.05284,-1.358612 -4.20677,-1.652498 -8.27479,2.487839 -10.7911,4.855603 -10.71757,10.08857 -18.11322,11.401465 -18.63894,22.315465 l -0.62702,11.97783 c -1.13797,19.1529 -2.88473,18.87639 -10.34538,25.9268 z"
       id="path886"
       inkscape:connector-curvature="0"
       sodipodi:nodetypes="cccsccccscccccccccccccsscccccccccccccsssccccccscccccccccc" />
  </g>
</svg>
